<?xml version="1.0" encoding="UTF-8" standalone="no"?>
<!DOCTYPE svg PUBLIC "-//W3C//DTD SVG 1.1//EN" "http://www.w3.org/Graphics/SVG/1.1/DTD/svg11.dtd">
<svg width="100%" height="100%" viewBox="0 0 73 73" version="1.1" xmlns="http://www.w3.org/2000/svg" xmlns:xlink="http://www.w3.org/1999/xlink" xml:space="preserve" xmlns:serif="http://www.serif.com/" style="fill-rule:evenodd;clip-rule:evenodd;stroke-linejoin:round;stroke-miterlimit:2;">
    <g transform="matrix(1,0,0,1,-935.979,-2269.06)">
        <g transform="matrix(1.60935,0,0,3.49463,0,0)">
            <g transform="matrix(0.103898,0,0,0.0854223,581.588,592.09)">
                <g transform="matrix(0.842467,0,0,0.471888,0,669.736)">
                    <g>
                        <path d="M179.149,281.6L178.919,281.6C106.718,281.6 42.232,299.452 14.593,327.091C4.898,336.785 -0.009,347.29 0,358.315C0.026,401.374 78.746,435.149 179.217,435.2L179.447,435.2C251.639,435.2 316.125,417.348 343.765,389.709C353.459,380.015 358.366,369.511 358.357,358.485C358.34,315.426 279.62,281.651 179.149,281.6ZM331.699,377.634C307.464,401.869 246.306,418.133 179.439,418.133L179.217,418.133C83.678,418.082 17.084,386.56 17.067,358.306C17.067,351.974 20.293,345.532 26.658,339.166C50.893,314.931 112.051,298.667 178.918,298.667L179.14,298.667C274.679,298.718 341.273,330.24 341.29,358.494C341.299,364.826 338.065,371.268 331.699,377.634Z" style="fill:rgb(129,3,3);fill-rule:nonzero;"/>
                    </g>
                </g>
                <g transform="matrix(0.842467,0,0,0.471888,0,669.736)">
                    <g>
                        <path d="M358.357,358.494C358.357,353.775 354.534,349.961 349.824,349.961C345.105,349.961 341.291,353.784 341.291,358.494C341.3,364.826 338.065,371.268 331.7,377.634C307.465,401.869 246.307,418.133 179.44,418.133L179.218,418.133C83.679,418.082 17.085,386.56 17.068,358.314C17.068,353.595 13.245,349.781 8.535,349.781C3.816,349.781 0.002,353.604 0.002,358.314L0.045,435.114C0.068,478.174 78.788,511.949 179.251,512L179.49,512C278.118,512 356.121,479.002 358.297,436.634C358.365,436.19 358.399,435.746 358.399,435.294L358.357,358.494ZM341.274,435.14C340.762,463.437 274.211,494.933 179.491,494.933L179.261,494.933C83.722,494.882 17.128,463.36 17.111,435.106L17.085,391.586C45.535,417.561 106.711,435.166 179.218,435.2L179.448,435.2C249.583,435.2 312.44,418.355 341.308,392.047L341.334,434.261C341.299,434.552 341.274,434.842 341.274,435.14Z" style="fill:rgb(129,3,3);fill-rule:nonzero;"/>
                    </g>
                </g>
                <g transform="matrix(0.842467,0,0,0.471888,0,669.736)">
                    <g>
                        <path d="M349.867,349.867L8.533,349.867C3.823,349.867 0,353.69 0,358.4C0,363.11 3.823,366.933 8.533,366.933L349.866,366.933C354.576,366.933 358.399,363.11 358.399,358.4C358.399,353.69 354.577,349.867 349.867,349.867Z" style="fill:rgb(129,3,3);fill-rule:nonzero;"/>
                    </g>
                </g>
                <g transform="matrix(0.842467,0,0,0.471888,0,669.736)">
                    <g>
                        <path d="M182.315,73.694C152.372,43.751 103.646,43.751 73.703,73.694C70.366,77.031 70.366,82.424 73.703,85.76C77.031,89.097 82.441,89.097 85.769,85.76C109.056,62.473 146.953,62.473 170.24,85.76C171.904,87.424 174.089,88.26 176.273,88.26C178.457,88.26 180.642,87.432 182.315,85.76C185.651,82.423 185.651,77.03 182.315,73.694Z" style="fill:rgb(129,3,3);fill-rule:nonzero;"/>
                    </g>
                </g>
                <g transform="matrix(0.842467,0,0,0.471888,0,669.736)">
                    <g>
                        <path d="M345.66,163.763C342.323,160.426 336.922,160.426 333.594,163.763L211.49,285.875C208.153,289.212 208.153,294.605 211.49,297.941C213.154,299.605 215.339,300.441 217.523,300.441C219.708,300.441 221.892,299.605 223.556,297.941L345.66,175.829C348.996,172.493 348.996,167.1 345.66,163.763Z" style="fill:rgb(129,3,3);fill-rule:nonzero;"/>
                    </g>
                </g>
                <g transform="matrix(0.842467,0,0,0.471888,0,669.736)">
                    <g>
                        <path d="M474.325,292.429L219.571,37.675C195.277,13.38 162.978,0 128.623,0C94.268,0 61.969,13.38 37.675,37.675C13.38,61.961 0,94.268 0,128.623C0,162.978 13.38,195.277 37.675,219.571L117.974,299.87C119.86,301.764 122.505,302.66 125.168,302.293C142.815,299.878 161.204,298.444 179.141,298.666C274.68,298.717 341.274,330.239 341.3,358.476L341.343,434.243C341.309,434.533 341.283,434.823 341.283,435.122C341.061,447.256 328.423,460.278 306.603,470.86C303.941,472.157 302.132,474.726 301.833,477.67C301.534,480.614 302.772,483.507 305.118,485.307C328.243,503.107 355.857,511.854 383.369,511.854C416.495,511.854 449.477,499.173 474.326,474.324C498.62,450.039 512,417.732 512,383.377C512,349.022 498.62,316.723 474.325,292.429ZM462.251,462.259C426.018,498.492 369.844,504.892 326.673,479.343C346.667,467.021 357.512,452.437 358.298,436.608C358.366,436.173 358.4,435.729 358.4,435.285L358.357,358.485C358.34,315.426 279.62,281.651 179.148,281.6L178.969,281.6C161.527,281.6 144.093,282.684 127.069,284.834L49.74,207.505C28.671,186.436 17.066,158.421 17.066,128.623C17.066,98.825 28.672,70.81 49.741,49.741C70.81,28.672 98.825,17.067 128.623,17.067C158.421,17.067 186.436,28.672 207.505,49.741L462.259,304.495C483.328,325.564 494.933,353.579 494.933,383.377C494.933,413.175 483.328,441.19 462.251,462.259Z" style="fill:rgb(129,3,3);fill-rule:nonzero;"/>
                    </g>
                </g>
            </g>
        </g>
    </g>
</svg>
