<?xml version="1.0" encoding="UTF-8" standalone="no"?><!DOCTYPE svg PUBLIC "-//W3C//DTD SVG 1.1//EN" "http://www.w3.org/Graphics/SVG/1.1/DTD/svg11.dtd"><svg width="100%" height="100%" viewBox="0 0 1200 652" version="1.1" xmlns="http://www.w3.org/2000/svg" xmlns:xlink="http://www.w3.org/1999/xlink" xml:space="preserve" xmlns:serif="http://www.serif.com/" style="fill-rule:evenodd;clip-rule:evenodd;stroke-miterlimit:10;"><g><path d="M1168.95,651.417l-1138.72,-0c-16.696,-0 -30.23,-13.534 -30.23,-30.23c-0,-16.694 13.534,-30.226 30.23,-30.226l1138.72,-0c16.694,-0 30.228,13.532 30.228,30.226c-0,16.696 -13.534,30.23 -30.228,30.23" style="fill:#77d4e6;fill-rule:nonzero;"/><path d="M1132.64,613.249l-1066.1,-0c-8.446,-0 -15.296,-6.85 -15.296,-15.298c0,-8.449 6.85,-15.296 15.296,-15.296l1066.1,0c8.448,0 15.295,6.847 15.295,15.296c0,8.448 -6.847,15.298 -15.295,15.298" style="fill:#009cac;fill-rule:nonzero;"/><rect x="146.39" y="287.075" width="43.036" height="53.434" style="fill:#a8f3ff;"/><rect x="52.057" y="287.075" width="94.333" height="53.434" style="fill:#77d4e6;"/><rect x="55.623" y="290.077" width="4.603" height="48.42" style="fill:#009cac;"/><rect x="55.625" y="290.077" width="1.581" height="48.42" style="fill:#007086;"/><rect x="63.787" y="290.077" width="4.603" height="48.42" style="fill:#009cac;"/><rect x="63.789" y="290.077" width="1.579" height="48.42" style="fill:#007086;"/><rect x="71.95" y="290.077" width="4.603" height="48.42" style="fill:#009cac;"/><rect x="71.952" y="290.077" width="1.581" height="48.42" style="fill:#007086;"/><rect x="80.114" y="290.077" width="4.603" height="48.42" style="fill:#009cac;"/><rect x="80.116" y="290.077" width="1.579" height="48.42" style="fill:#007086;"/><rect x="88.278" y="290.077" width="4.603" height="48.42" style="fill:#009cac;"/><rect x="88.278" y="290.077" width="1.581" height="48.42" style="fill:#007086;"/><rect x="96.44" y="290.077" width="4.603" height="48.42" style="fill:#009cac;"/><rect x="96.442" y="290.077" width="1.579" height="48.42" style="fill:#007086;"/><rect x="104.605" y="290.077" width="4.603" height="48.42" style="fill:#009cac;"/><rect x="104.605" y="290.077" width="1.581" height="48.42" style="fill:#007086;"/><rect x="112.767" y="290.077" width="4.603" height="48.42" style="fill:#009cac;"/><rect x="112.769" y="290.077" width="1.579" height="48.42" style="fill:#007086;"/><rect x="120.931" y="290.077" width="4.603" height="48.42" style="fill:#009cac;"/><path d="M120.931,290.076l0,48.42l1.581,-0l0,-48.42l-1.581,-0Z" style="fill:#007086;fill-rule:nonzero;"/><rect x="129.094" y="290.077" width="4.603" height="48.42" style="fill:#009cac;"/><rect x="129.094" y="290.077" width="1.581" height="48.42" style="fill:#007086;"/><rect x="137.258" y="290.077" width="4.601" height="48.42" style="fill:#009cac;"/><rect x="137.258" y="290.077" width="1.581" height="48.42" style="fill:#007086;"/><rect x="129.875" y="340.509" width="43.036" height="53.432" style="fill:#ff162b;"/><rect x="35.544" y="340.509" width="94.331" height="53.432" style="fill:#ca1859;"/><rect x="39.108" y="343.509" width="4.603" height="48.422" style="fill:#9b1149;"/><rect x="39.11" y="343.507" width="1.581" height="48.424" style="fill:#69173a;"/><rect x="47.274" y="343.509" width="4.601" height="48.422" style="fill:#9b1149;"/><rect x="47.274" y="343.507" width="1.579" height="48.424" style="fill:#69173a;"/><rect x="55.436" y="343.509" width="4.601" height="48.422" style="fill:#9b1149;"/><rect x="55.436" y="343.507" width="1.579" height="48.424" style="fill:#69173a;"/><rect x="63.599" y="343.509" width="4.603" height="48.422" style="fill:#9b1149;"/><rect x="63.599" y="343.507" width="1.581" height="48.424" style="fill:#69173a;"/><rect x="71.761" y="343.509" width="4.603" height="48.422" style="fill:#9b1149;"/><rect x="71.763" y="343.507" width="1.581" height="48.424" style="fill:#69173a;"/><rect x="79.925" y="343.509" width="4.603" height="48.422" style="fill:#9b1149;"/><rect x="79.925" y="343.507" width="1.581" height="48.424" style="fill:#69173a;"/><rect x="88.087" y="343.509" width="4.603" height="48.422" style="fill:#9b1149;"/><rect x="88.089" y="343.507" width="1.579" height="48.424" style="fill:#69173a;"/><rect x="96.252" y="343.509" width="4.603" height="48.422" style="fill:#9b1149;"/><rect x="96.252" y="343.507" width="1.581" height="48.424" style="fill:#69173a;"/><rect x="104.414" y="343.509" width="4.603" height="48.422" style="fill:#9b1149;"/><path d="M104.415,343.507l-0,48.424l1.58,0l0,-48.424l-1.58,0Z" style="fill:#69173a;fill-rule:nonzero;"/><rect x="112.58" y="343.509" width="4.601" height="48.422" style="fill:#9b1149;"/><rect x="112.578" y="343.507" width="1.581" height="48.424" style="fill:#69173a;"/><rect x="120.743" y="343.509" width="4.603" height="48.422" style="fill:#9b1149;"/><rect x="120.743" y="343.507" width="1.579" height="48.424" style="fill:#69173a;"/><path d="M1150.52,398.663l-0,-88.815" style="fill:none;fill-rule:nonzero;stroke:#092c43;stroke-width:4.34px;"/><path d="M1170.97,396.007l-20.444,-86.159l-19.541,86.159" style="fill:none;fill-rule:nonzero;stroke:#092c43;stroke-width:4.34px;"/><path d="M829.867,139.446l45.897,-95.827l184.4,126.771" style="fill:none;fill-rule:nonzero;stroke:#092c43;stroke-width:8.68px;"/><path d="M867.88,135.247l7.885,-91.628l111.432,126.771" style="fill:none;fill-rule:nonzero;stroke:#092c43;stroke-width:8.68px;"/><rect x="814.505" y="143.992" width="5.855" height="249.95" style="fill:#ff8c00;"/><rect x="820.36" y="143.992" width="5.855" height="249.95" style="fill:#ffb300;"/><rect x="849.845" y="143.992" width="5.855" height="249.95" style="fill:#ff8c00;"/><rect x="855.7" y="143.992" width="5.853" height="249.95" style="fill:#ffb300;"/><rect x="892.491" y="152.686" width="5.855" height="241.256" style="fill:#ff8c00;"/><rect x="898.344" y="152.686" width="5.855" height="241.256" style="fill:#ffb300;"/><rect x="927.831" y="152.686" width="5.855" height="241.256" style="fill:#ff8c00;"/><rect x="933.684" y="152.686" width="5.855" height="241.256" style="fill:#ffb300;"/><rect x="797.515" y="131.422" width="85.458" height="16.047" style="fill:#ffb300;"/><rect x="797.515" y="131.422" width="64.702" height="16.047" style="fill:#ff8c00;"/><rect x="876.447" y="150.216" width="78.167" height="8.022" style="fill:#ffb300;"/><rect x="876.447" y="150.216" width="64.702" height="8.022" style="fill:#ff8c00;"/><rect x="810.477" y="290.204" width="55.111" height="8.022" style="fill:#ffb300;"/><rect x="810.475" y="290.204" width="45.617" height="8.022" style="fill:#ff8c00;"/><rect x="887.978" y="290.204" width="55.109" height="8.022" style="fill:#ffb300;"/><rect x="887.976" y="290.204" width="45.617" height="8.022" style="fill:#ff8c00;"/><path d="M995.543,201.646l-0,-31.255" style="fill:none;fill-rule:nonzero;stroke:#092c43;stroke-width:8.68px;"/><path d="M1023.55,201.646l0,-31.255" style="fill:none;fill-rule:nonzero;stroke:#092c43;stroke-width:8.68px;"/><path d="M1078.64,201.646l0,-31.255" style="fill:none;fill-rule:nonzero;stroke:#092c43;stroke-width:8.68px;"/><path d="M1106.65,201.646l-0,-31.255" style="fill:none;fill-rule:nonzero;stroke:#092c43;stroke-width:8.68px;"/><rect x="991.285" y="197.633" width="10.291" height="8.024" style="fill:#ffb300;"/><rect x="991.285" y="197.633" width="8.517" height="8.024" style="fill:#ff8c00;"/><rect x="1018.4" y="197.633" width="10.291" height="8.024" style="fill:#ffb300;"/><rect x="1018.4" y="197.633" width="8.519" height="8.024" style="fill:#ff8c00;"/><rect x="1073.5" y="197.633" width="10.291" height="8.024" style="fill:#ffb300;"/><rect x="1073.5" y="197.633" width="8.519" height="8.024" style="fill:#ff8c00;"/><rect x="1100.62" y="197.633" width="10.289" height="8.024" style="fill:#ffb300;"/><rect x="1100.62" y="197.633" width="8.517" height="8.024" style="fill:#ff8c00;"/><rect x="987.195" y="200.637" width="127.359" height="2.019" style="fill:#ffb300;"/><rect x="987.195" y="200.637" width="117.263" height="2.019" style="fill:#ff8c00;"/><rect x="770.775" y="165.844" width="395.852" height="9.094" style="fill:#ffb300;"/><rect x="770.778" y="165.844" width="356.721" height="9.094" style="fill:#ff8c00;"/><path d="M853.805,176.11l1.386,2.398l-37.249,21.525l-1.385,-2.398l37.248,-21.525Z" style="fill:#ff8c00;"/><path d="M817.927,225.532l-1.37,-2.374l37.263,-21.502l1.37,2.375l-37.263,21.501Z" style="fill:#ff8c00;"/><path d="M817.927,251.055l-1.37,-2.374l37.263,-21.502l1.37,2.375l-37.263,21.501Z" style="fill:#ff8c00;"/><path d="M817.927,276.578l-1.37,-2.375l37.263,-21.502l1.37,2.375l-37.263,21.502Z" style="fill:#ff8c00;"/><path d="M817.927,302.1l-1.37,-2.375l37.263,-21.502l1.37,2.375l-37.263,21.502Z" style="fill:#ff8c00;"/><path d="M817.927,327.622l-1.37,-2.375l37.263,-21.501l1.37,2.374l-37.263,21.502Z" style="fill:#ff8c00;"/><path d="M817.918,353.131l-1.361,-2.362l37.272,-21.488l1.361,2.361l-37.272,21.489Z" style="fill:#ff8c00;"/><path d="M817.927,378.668l-1.37,-2.374l37.263,-21.502l1.37,2.375l-37.263,21.501Z" style="fill:#ff8c00;"/><path d="M930.494,176.109l1.386,2.399l-37.25,21.525l-1.386,-2.398l37.25,-21.526Z" style="fill:#ff8c00;"/><path d="M894.63,225.556l-1.386,-2.398l37.25,-21.526l1.386,2.399l-37.25,21.525Z" style="fill:#ff8c00;"/><path d="M894.63,251.079l-1.386,-2.398l37.25,-21.526l1.386,2.399l-37.25,21.525Z" style="fill:#ff8c00;"/><path d="M894.63,276.601l-1.386,-2.398l37.25,-21.526l1.386,2.399l-37.25,21.525Z" style="fill:#ff8c00;"/><path d="M894.63,302.124l-1.386,-2.399l37.25,-21.525l1.386,2.398l-37.25,21.526Z" style="fill:#ff8c00;"/><path d="M894.63,327.646l-1.386,-2.399l37.25,-21.525l1.386,2.398l-37.25,21.526Z" style="fill:#ff8c00;"/><path d="M894.621,353.155l-1.377,-2.386l37.259,-21.512l1.377,2.385l-37.259,21.513Z" style="fill:#ff8c00;"/><path d="M894.63,378.692l-1.386,-2.398l37.25,-21.526l1.386,2.399l-37.25,21.525Z" style="fill:#ff8c00;"/><rect x="153.862" y="101.342" width="252.716" height="49.603" style="fill:#ffb300;"/><rect x="153.862" y="101.342" width="67.693" height="49.603" style="fill:#ff8c00;"/><rect x="132.822" y="189.836" width="294.8" height="204.105" style="fill:#ffb300;"/><rect x="132.822" y="189.836" width="294.8" height="3.862" style="fill:#ff8c00;"/><path d="M470.959,150.944l-381.475,0l5.213,38.892l371.049,-0l5.213,-38.892Z" style="fill:#ffb300;fill-rule:nonzero;"/><path d="M194.087,150.944l-104.602,0l5.212,38.892l99.39,-0l-0,-38.892Z" style="fill:#ff8c00;fill-rule:nonzero;"/><rect x="132.824" y="189.836" width="84.667" height="204.105" style="fill:#ff8c00;"/><rect x="139.372" y="241.732" width="67.078" height="5.577" style="fill:#fc6400;"/><rect x="163.354" y="209.272" width="19.115" height="35.744" style="fill:#fc6400;"/><rect x="166.828" y="212.748" width="12.164" height="28.793" style="fill:#052339;"/><rect x="139.372" y="297.334" width="67.078" height="5.575" style="fill:#fc6400;"/><rect x="163.354" y="264.873" width="19.115" height="35.742" style="fill:#fc6400;"/><rect x="166.828" y="268.346" width="12.164" height="28.793" style="fill:#052339;"/><rect x="139.372" y="352.931" width="67.078" height="5.575" style="fill:#fc6400;"/><rect x="163.354" y="320.471" width="19.115" height="35.742" style="fill:#fc6400;"/><rect x="166.828" y="323.945" width="12.164" height="28.793" style="fill:#052339;"/><rect x="232.129" y="203.52" width="24.795" height="29.01" style="fill:#ff8c00;"/><rect x="235.475" y="206.867" width="18.1" height="22.317" style="fill:#77d4e6;"/><rect x="250.168" y="206.867" width="3.409" height="22.317" style="fill:#009cac;"/><rect x="271.801" y="203.52" width="24.795" height="29.01" style="fill:#ff8c00;"/><rect x="275.15" y="206.867" width="18.1" height="22.317" style="fill:#77d4e6;"/><rect x="289.841" y="206.867" width="3.409" height="22.317" style="fill:#009cac;"/><rect x="311.476" y="203.52" width="24.795" height="29.01" style="fill:#ff8c00;"/><rect x="314.823" y="206.867" width="18.1" height="22.317" style="fill:#77d4e6;"/><rect x="329.514" y="206.867" width="3.409" height="22.317" style="fill:#009cac;"/><rect x="351.149" y="203.52" width="24.795" height="29.01" style="fill:#ff8c00;"/><rect x="354.496" y="206.867" width="18.1" height="22.317" style="fill:#77d4e6;"/><rect x="369.189" y="206.867" width="3.409" height="22.317" style="fill:#009cac;"/><rect x="390.822" y="203.52" width="24.795" height="29.01" style="fill:#ff8c00;"/><rect x="394.171" y="206.867" width="18.1" height="22.317" style="fill:#77d4e6;"/><rect x="408.861" y="206.867" width="3.409" height="22.317" style="fill:#009cac;"/><rect x="232.129" y="254.879" width="24.795" height="29.012" style="fill:#ff8c00;"/><rect x="235.475" y="258.225" width="18.1" height="22.317" style="fill:#77d4e6;"/><rect x="250.168" y="258.225" width="3.409" height="22.317" style="fill:#009cac;"/><rect x="271.801" y="254.879" width="24.795" height="29.012" style="fill:#ff8c00;"/><rect x="275.15" y="258.225" width="18.1" height="22.317" style="fill:#77d4e6;"/><rect x="289.841" y="258.225" width="3.409" height="22.317" style="fill:#009cac;"/><rect x="311.476" y="254.879" width="24.795" height="29.012" style="fill:#ff8c00;"/><rect x="314.823" y="258.225" width="18.1" height="22.317" style="fill:#77d4e6;"/><rect x="329.514" y="258.225" width="3.409" height="22.317" style="fill:#009cac;"/><rect x="351.149" y="254.879" width="24.795" height="29.012" style="fill:#ff8c00;"/><rect x="354.496" y="258.225" width="18.1" height="22.317" style="fill:#77d4e6;"/><rect x="369.189" y="258.225" width="3.409" height="22.317" style="fill:#009cac;"/><rect x="390.822" y="254.879" width="24.795" height="29.012" style="fill:#ff8c00;"/><rect x="394.171" y="258.225" width="18.1" height="22.317" style="fill:#77d4e6;"/><rect x="408.861" y="258.225" width="3.409" height="22.317" style="fill:#009cac;"/><rect x="232.129" y="306.237" width="24.795" height="29.012" style="fill:#ff8c00;"/><rect x="235.475" y="309.585" width="18.1" height="22.317" style="fill:#77d4e6;"/><rect x="250.168" y="309.585" width="3.409" height="22.317" style="fill:#009cac;"/><rect x="271.801" y="306.237" width="24.795" height="29.012" style="fill:#ff8c00;"/><rect x="275.15" y="309.585" width="18.1" height="22.317" style="fill:#77d4e6;"/><rect x="289.841" y="309.585" width="3.409" height="22.317" style="fill:#009cac;"/><rect x="311.476" y="306.237" width="24.795" height="29.012" style="fill:#ff8c00;"/><rect x="314.823" y="309.585" width="18.1" height="22.317" style="fill:#77d4e6;"/><rect x="329.514" y="309.585" width="3.409" height="22.317" style="fill:#009cac;"/><rect x="351.149" y="306.237" width="24.795" height="29.012" style="fill:#ff8c00;"/><rect x="354.496" y="309.585" width="18.1" height="22.317" style="fill:#77d4e6;"/><rect x="369.189" y="309.585" width="3.409" height="22.317" style="fill:#009cac;"/><rect x="390.822" y="306.237" width="24.795" height="29.012" style="fill:#ff8c00;"/><rect x="394.171" y="309.585" width="18.1" height="22.317" style="fill:#77d4e6;"/><rect x="408.861" y="309.585" width="3.409" height="22.317" style="fill:#009cac;"/><rect x="232.129" y="357.597" width="24.795" height="29.01" style="fill:#ff8c00;"/><rect x="235.475" y="360.943" width="18.1" height="22.315" style="fill:#77d4e6;"/><rect x="250.168" y="360.943" width="3.409" height="22.315" style="fill:#009cac;"/><rect x="271.801" y="357.597" width="24.795" height="29.01" style="fill:#ff8c00;"/><rect x="275.15" y="360.943" width="18.1" height="22.315" style="fill:#77d4e6;"/><rect x="289.841" y="360.943" width="3.409" height="22.315" style="fill:#009cac;"/><rect x="311.476" y="357.597" width="24.795" height="29.01" style="fill:#ff8c00;"/><rect x="314.823" y="360.943" width="18.1" height="22.315" style="fill:#77d4e6;"/><rect x="329.514" y="360.943" width="3.409" height="22.315" style="fill:#009cac;"/><rect x="351.149" y="357.597" width="24.795" height="29.01" style="fill:#ff8c00;"/><rect x="354.496" y="360.943" width="18.1" height="22.315" style="fill:#77d4e6;"/><rect x="369.189" y="360.943" width="3.409" height="22.315" style="fill:#009cac;"/><rect x="390.822" y="357.597" width="24.795" height="29.01" style="fill:#ff8c00;"/><rect x="394.171" y="360.943" width="18.1" height="22.315" style="fill:#77d4e6;"/><rect x="408.861" y="360.943" width="3.409" height="22.315" style="fill:#009cac;"/><rect x="277.271" y="68.991" width="8.461" height="32.351" style="fill:#144c64;"/><rect x="277.273" y="68.991" width="4.229" height="32.351" style="fill:#052339;"/><rect x="257.612" y="68.762" width="47.78" height="4.229" style="fill:#144c64;"/><rect x="226.337" y="104.816" width="176.767" height="42.652" style="fill:#ff8c00;"/><rect x="229.811" y="108.293" width="169.817" height="35.701" style="fill:#77d4e6;"/><path d="M399.629,114.821l-0,-6.528l-3.996,-0l-35.704,35.701l10.527,0l29.173,-29.173Z" style="fill:#a8f3ff;fill-rule:nonzero;"/><path d="M251.659,108.292l-21.848,21.849l-0,13.852l23.383,0l35.701,-35.701l-37.236,0Z" style="fill:#a8f3ff;fill-rule:nonzero;"/><path d="M308.845,108.292l-10.524,0l-35.701,35.701l10.524,0l35.701,-35.701Z" style="fill:#a8f3ff;fill-rule:nonzero;"/><path d="M368.571,108.292l-16.647,0l-35.701,35.701l16.647,0l35.701,-35.701Z" style="fill:#a8f3ff;fill-rule:nonzero;"/><path d="M375.779,108.292l-2.23,0l-35.701,35.701l2.23,0l35.701,-35.701Z" style="fill:#a8f3ff;fill-rule:nonzero;"/><rect x="396.825" y="108.293" width="2.803" height="35.701" style="fill:#009cac;"/><rect x="257.612" y="105.969" width="3.507" height="39.348" style="fill:#ff8c00;"/><rect x="293.238" y="105.969" width="3.507" height="39.348" style="fill:#ff8c00;"/><rect x="328.866" y="105.969" width="3.505" height="39.348" style="fill:#ff8c00;"/><rect x="364.495" y="105.969" width="3.505" height="39.348" style="fill:#ff8c00;"/><rect x="459.824" y="340.509" width="43.036" height="53.432" style="fill:#ffb300;"/><rect x="365.491" y="340.509" width="94.333" height="53.432" style="fill:#ff8c00;"/><rect x="369.057" y="343.509" width="4.603" height="48.422" style="fill:#fc6400;"/><rect x="369.059" y="343.507" width="1.579" height="48.424" style="fill:#d04e00;"/><rect x="377.221" y="343.509" width="4.603" height="48.422" style="fill:#fc6400;"/><rect x="377.221" y="343.507" width="1.581" height="48.424" style="fill:#d04e00;"/><rect x="385.383" y="343.509" width="4.603" height="48.422" style="fill:#fc6400;"/><rect x="385.383" y="343.507" width="1.579" height="48.424" style="fill:#d04e00;"/><rect x="393.547" y="343.509" width="4.603" height="48.422" style="fill:#fc6400;"/><rect x="393.547" y="343.507" width="1.581" height="48.424" style="fill:#d04e00;"/><rect x="401.71" y="343.509" width="4.603" height="48.422" style="fill:#fc6400;"/><rect x="401.71" y="343.507" width="1.581" height="48.424" style="fill:#d04e00;"/><rect x="409.872" y="343.509" width="4.603" height="48.422" style="fill:#fc6400;"/><rect x="409.874" y="343.507" width="1.579" height="48.424" style="fill:#d04e00;"/><rect x="418.036" y="343.509" width="4.603" height="48.422" style="fill:#fc6400;"/><rect x="418.036" y="343.507" width="1.581" height="48.424" style="fill:#d04e00;"/><rect x="426.201" y="343.509" width="4.601" height="48.422" style="fill:#fc6400;"/><rect x="426.201" y="343.507" width="1.579" height="48.424" style="fill:#d04e00;"/><rect x="434.363" y="343.509" width="4.603" height="48.422" style="fill:#fc6400;"/><path d="M434.364,343.507l-0,48.424l1.581,0l-0,-48.424l-1.581,0Z" style="fill:#d04e00;fill-rule:nonzero;"/><rect x="442.527" y="343.509" width="4.603" height="48.422" style="fill:#fc6400;"/><rect x="442.527" y="343.507" width="1.581" height="48.424" style="fill:#d04e00;"/><rect x="450.689" y="343.509" width="4.603" height="48.422" style="fill:#fc6400;"/><rect x="450.689" y="343.507" width="1.581" height="48.424" style="fill:#d04e00;"/><rect x="560.637" y="340.509" width="43.036" height="53.432" style="fill:#a8f3ff;"/><rect x="466.306" y="340.509" width="94.333" height="53.432" style="fill:#77d4e6;"/><rect x="469.871" y="343.509" width="4.603" height="48.422" style="fill:#009cac;"/><rect x="469.871" y="343.507" width="1.579" height="48.424" style="fill:#007086;"/><rect x="478.034" y="343.509" width="4.603" height="48.422" style="fill:#009cac;"/><rect x="478.034" y="343.507" width="1.581" height="48.424" style="fill:#007086;"/><rect x="486.2" y="343.509" width="4.601" height="48.422" style="fill:#009cac;"/><rect x="486.198" y="343.507" width="1.581" height="48.424" style="fill:#007086;"/><rect x="494.362" y="343.509" width="4.601" height="48.422" style="fill:#009cac;"/><rect x="494.362" y="343.507" width="1.579" height="48.424" style="fill:#007086;"/><rect x="502.525" y="343.509" width="4.603" height="48.422" style="fill:#009cac;"/><rect x="502.525" y="343.507" width="1.579" height="48.424" style="fill:#007086;"/><rect x="510.689" y="343.509" width="4.603" height="48.422" style="fill:#009cac;"/><rect x="510.689" y="343.507" width="1.579" height="48.424" style="fill:#007086;"/><rect x="518.851" y="343.509" width="4.603" height="48.422" style="fill:#009cac;"/><rect x="518.853" y="343.507" width="1.581" height="48.424" style="fill:#007086;"/><rect x="527.015" y="343.509" width="4.603" height="48.422" style="fill:#009cac;"/><rect x="527.015" y="343.507" width="1.581" height="48.424" style="fill:#007086;"/><rect x="535.178" y="343.509" width="4.603" height="48.422" style="fill:#009cac;"/><path d="M535.179,343.507l0,48.424l1.581,0l0,-48.424l-1.581,0Z" style="fill:#007086;fill-rule:nonzero;"/><rect x="543.342" y="343.509" width="4.603" height="48.422" style="fill:#009cac;"/><rect x="543.342" y="343.507" width="1.581" height="48.424" style="fill:#007086;"/><rect x="551.506" y="343.509" width="4.601" height="48.422" style="fill:#009cac;"/><rect x="551.506" y="343.507" width="1.579" height="48.424" style="fill:#007086;"/><rect x="660.268" y="340.509" width="43.036" height="53.432" style="fill:#ff162b;"/><rect x="565.935" y="340.509" width="94.333" height="53.432" style="fill:#ca1859;"/><rect x="569.501" y="343.509" width="4.603" height="48.422" style="fill:#9b1149;"/><rect x="569.503" y="343.507" width="1.579" height="48.424" style="fill:#69173a;"/><rect x="577.665" y="343.509" width="4.603" height="48.422" style="fill:#9b1149;"/><rect x="577.665" y="343.507" width="1.581" height="48.424" style="fill:#69173a;"/><rect x="585.828" y="343.509" width="4.603" height="48.422" style="fill:#9b1149;"/><rect x="585.83" y="343.507" width="1.581" height="48.424" style="fill:#69173a;"/><rect x="593.992" y="343.509" width="4.603" height="48.422" style="fill:#9b1149;"/><rect x="593.992" y="343.507" width="1.579" height="48.424" style="fill:#69173a;"/><rect x="602.154" y="343.509" width="4.603" height="48.422" style="fill:#9b1149;"/><rect x="602.156" y="343.507" width="1.579" height="48.424" style="fill:#69173a;"/><rect x="610.316" y="343.509" width="4.603" height="48.422" style="fill:#9b1149;"/><rect x="610.318" y="343.507" width="1.581" height="48.424" style="fill:#69173a;"/><rect x="618.481" y="343.509" width="4.603" height="48.422" style="fill:#9b1149;"/><rect x="618.481" y="343.507" width="1.579" height="48.424" style="fill:#69173a;"/><rect x="626.643" y="343.509" width="4.603" height="48.422" style="fill:#9b1149;"/><rect x="626.645" y="343.507" width="1.581" height="48.424" style="fill:#69173a;"/><rect x="634.807" y="343.509" width="4.603" height="48.422" style="fill:#9b1149;"/><path d="M634.807,343.507l0,48.424l1.581,0l0,-48.424l-1.581,0Z" style="fill:#69173a;fill-rule:nonzero;"/><rect x="642.97" y="343.509" width="4.603" height="48.422" style="fill:#9b1149;"/><rect x="642.972" y="343.507" width="1.579" height="48.424" style="fill:#69173a;"/><rect x="651.136" y="343.509" width="4.601" height="48.422" style="fill:#9b1149;"/><rect x="651.136" y="343.507" width="1.579" height="48.424" style="fill:#69173a;"/><rect x="1059.39" y="340.509" width="43.036" height="53.432" style="fill:#ff162b;"/><rect x="965.057" y="340.509" width="94.331" height="53.432" style="fill:#ca1859;"/><rect x="968.622" y="343.509" width="4.601" height="48.422" style="fill:#9b1149;"/><rect x="968.622" y="343.507" width="1.579" height="48.424" style="fill:#69173a;"/><rect x="976.787" y="343.509" width="4.603" height="48.422" style="fill:#9b1149;"/><rect x="976.787" y="343.507" width="1.577" height="48.424" style="fill:#69173a;"/><rect x="984.949" y="343.509" width="4.603" height="48.422" style="fill:#9b1149;"/><rect x="984.949" y="343.507" width="1.581" height="48.424" style="fill:#69173a;"/><rect x="993.113" y="343.509" width="4.603" height="48.422" style="fill:#9b1149;"/><rect x="993.113" y="343.507" width="1.581" height="48.424" style="fill:#69173a;"/><rect x="1001.27" y="343.509" width="4.603" height="48.422" style="fill:#9b1149;"/><rect x="1001.28" y="343.507" width="1.581" height="48.424" style="fill:#69173a;"/><rect x="1009.44" y="343.509" width="4.603" height="48.422" style="fill:#9b1149;"/><rect x="1009.44" y="343.507" width="1.581" height="48.424" style="fill:#69173a;"/><rect x="1017.6" y="343.509" width="4.603" height="48.422" style="fill:#9b1149;"/><rect x="1017.6" y="343.507" width="1.579" height="48.424" style="fill:#69173a;"/><rect x="1025.76" y="343.509" width="4.603" height="48.422" style="fill:#9b1149;"/><rect x="1025.77" y="343.507" width="1.581" height="48.424" style="fill:#69173a;"/><rect x="1033.93" y="343.509" width="4.603" height="48.422" style="fill:#9b1149;"/><path d="M1033.93,343.507l0,48.424l1.581,0l0,-48.424l-1.581,0Z" style="fill:#69173a;fill-rule:nonzero;"/><rect x="1042.09" y="343.509" width="4.603" height="48.422" style="fill:#9b1149;"/><rect x="1042.09" y="343.507" width="1.581" height="48.424" style="fill:#69173a;"/><rect x="1050.26" y="343.509" width="4.603" height="48.422" style="fill:#9b1149;"/><rect x="1050.26" y="343.507" width="1.581" height="48.424" style="fill:#69173a;"/><rect x="760.034" y="340.509" width="43.036" height="53.432" style="fill:#ffb300;"/><rect x="665.703" y="340.509" width="94.331" height="53.432" style="fill:#ff8c00;"/><rect x="669.267" y="343.509" width="4.603" height="48.422" style="fill:#fc6400;"/><rect x="669.267" y="343.507" width="1.581" height="48.424" style="fill:#d04e00;"/><rect x="677.433" y="343.509" width="4.601" height="48.422" style="fill:#fc6400;"/><rect x="677.433" y="343.507" width="1.579" height="48.424" style="fill:#d04e00;"/><rect x="685.595" y="343.509" width="4.601" height="48.422" style="fill:#fc6400;"/><rect x="685.595" y="343.507" width="1.579" height="48.424" style="fill:#d04e00;"/><rect x="693.76" y="343.509" width="4.603" height="48.422" style="fill:#fc6400;"/><rect x="693.76" y="343.507" width="1.577" height="48.424" style="fill:#d04e00;"/><rect x="701.922" y="343.509" width="4.603" height="48.422" style="fill:#fc6400;"/><rect x="701.922" y="343.507" width="1.581" height="48.424" style="fill:#d04e00;"/><rect x="710.086" y="343.509" width="4.603" height="48.422" style="fill:#fc6400;"/><rect x="710.086" y="343.507" width="1.579" height="48.424" style="fill:#d04e00;"/><rect x="718.248" y="343.509" width="4.603" height="48.422" style="fill:#fc6400;"/><rect x="718.248" y="343.507" width="1.581" height="48.424" style="fill:#d04e00;"/><rect x="726.413" y="343.509" width="4.603" height="48.422" style="fill:#fc6400;"/><rect x="726.413" y="343.507" width="1.581" height="48.424" style="fill:#d04e00;"/><rect x="734.575" y="343.509" width="4.603" height="48.422" style="fill:#fc6400;"/><path d="M734.576,343.507l0,48.424l1.581,0l0,-48.424l-1.581,0Z" style="fill:#d04e00;fill-rule:nonzero;"/><rect x="742.737" y="343.509" width="4.603" height="48.422" style="fill:#fc6400;"/><rect x="742.739" y="343.507" width="1.581" height="48.424" style="fill:#d04e00;"/><rect x="750.902" y="343.509" width="4.603" height="48.422" style="fill:#fc6400;"/><rect x="750.904" y="343.507" width="1.579" height="48.424" style="fill:#d04e00;"/><rect x="569.741" y="233.641" width="43.036" height="53.434" style="fill:#ffb300;"/><rect x="475.41" y="233.641" width="94.331" height="53.434" style="fill:#ff8c00;"/><rect x="478.973" y="236.642" width="4.603" height="48.42" style="fill:#fc6400;"/><rect x="478.975" y="236.64" width="1.581" height="48.422" style="fill:#d04e00;"/><rect x="487.14" y="236.642" width="4.601" height="48.42" style="fill:#fc6400;"/><rect x="487.14" y="236.64" width="1.579" height="48.422" style="fill:#d04e00;"/><rect x="495.302" y="236.642" width="4.601" height="48.42" style="fill:#fc6400;"/><rect x="495.302" y="236.64" width="1.579" height="48.422" style="fill:#d04e00;"/><rect x="503.464" y="236.642" width="4.603" height="48.42" style="fill:#fc6400;"/><rect x="503.464" y="236.64" width="1.581" height="48.422" style="fill:#d04e00;"/><rect x="511.628" y="236.642" width="4.603" height="48.42" style="fill:#fc6400;"/><rect x="511.628" y="236.64" width="1.581" height="48.422" style="fill:#d04e00;"/><rect x="519.791" y="236.642" width="4.603" height="48.42" style="fill:#fc6400;"/><rect x="519.791" y="236.64" width="1.579" height="48.422" style="fill:#d04e00;"/><rect x="527.953" y="236.642" width="4.603" height="48.42" style="fill:#fc6400;"/><rect x="527.955" y="236.64" width="1.579" height="48.422" style="fill:#d04e00;"/><rect x="536.117" y="236.642" width="4.603" height="48.42" style="fill:#fc6400;"/><rect x="536.117" y="236.64" width="1.581" height="48.422" style="fill:#d04e00;"/><rect x="544.28" y="236.642" width="4.603" height="48.42" style="fill:#fc6400;"/><path d="M544.28,236.641l0,48.422l1.579,-0l0,-48.422l-1.579,-0Z" style="fill:#d04e00;fill-rule:nonzero;"/><rect x="552.444" y="236.642" width="4.603" height="48.42" style="fill:#fc6400;"/><rect x="552.444" y="236.64" width="1.581" height="48.422" style="fill:#d04e00;"/><rect x="560.608" y="236.642" width="4.603" height="48.42" style="fill:#fc6400;"/><rect x="560.608" y="236.64" width="1.579" height="48.422" style="fill:#d04e00;"/><rect x="458.269" y="287.075" width="43.036" height="53.434" style="fill:#144c64;"/><rect x="363.936" y="287.075" width="94.331" height="53.434" style="fill:#0d384f;"/><rect x="367.502" y="290.077" width="4.603" height="48.42" style="fill:#052339;"/><rect x="367.502" y="290.077" width="1.581" height="48.42" style="fill:#00101e;"/><rect x="375.664" y="290.077" width="4.603" height="48.42" style="fill:#052339;"/><rect x="375.666" y="290.077" width="1.579" height="48.42" style="fill:#00101e;"/><rect x="383.829" y="290.077" width="4.603" height="48.42" style="fill:#052339;"/><rect x="383.829" y="290.077" width="1.579" height="48.42" style="fill:#00101e;"/><rect x="391.991" y="290.077" width="4.603" height="48.42" style="fill:#052339;"/><rect x="391.993" y="290.077" width="1.579" height="48.42" style="fill:#00101e;"/><rect x="400.155" y="290.077" width="4.603" height="48.42" style="fill:#052339;"/><rect x="400.155" y="290.077" width="1.581" height="48.42" style="fill:#00101e;"/><rect x="408.317" y="290.077" width="4.603" height="48.42" style="fill:#052339;"/><rect x="408.317" y="290.077" width="1.579" height="48.42" style="fill:#00101e;"/><rect x="416.482" y="290.077" width="4.603" height="48.42" style="fill:#052339;"/><rect x="416.482" y="290.077" width="1.581" height="48.42" style="fill:#00101e;"/><rect x="424.644" y="290.077" width="4.603" height="48.42" style="fill:#052339;"/><rect x="424.644" y="290.077" width="1.581" height="48.42" style="fill:#00101e;"/><rect x="432.81" y="290.077" width="4.601" height="48.42" style="fill:#052339;"/><path d="M432.809,290.076l0,48.42l1.579,-0l0,-48.42l-1.579,-0Z" style="fill:#00101e;fill-rule:nonzero;"/><rect x="440.973" y="290.077" width="4.603" height="48.42" style="fill:#052339;"/><rect x="440.973" y="290.077" width="1.579" height="48.42" style="fill:#00101e;"/><rect x="449.135" y="290.077" width="4.603" height="48.42" style="fill:#052339;"/><rect x="449.137" y="290.077" width="1.579" height="48.42" style="fill:#00101e;"/><rect x="670.925" y="233.641" width="43.036" height="53.434" style="fill:#144c64;"/><rect x="576.594" y="233.641" width="94.331" height="53.434" style="fill:#0d384f;"/><rect x="580.159" y="236.642" width="4.603" height="48.42" style="fill:#052339;"/><rect x="580.159" y="236.64" width="1.581" height="48.422" style="fill:#00101e;"/><rect x="588.322" y="236.642" width="4.603" height="48.42" style="fill:#052339;"/><rect x="588.322" y="236.64" width="1.581" height="48.422" style="fill:#00101e;"/><rect x="596.486" y="236.642" width="4.603" height="48.42" style="fill:#052339;"/><rect x="596.486" y="236.64" width="1.579" height="48.422" style="fill:#00101e;"/><rect x="604.648" y="236.642" width="4.603" height="48.42" style="fill:#052339;"/><rect x="604.65" y="236.64" width="1.581" height="48.422" style="fill:#00101e;"/><rect x="612.813" y="236.642" width="4.603" height="48.42" style="fill:#052339;"/><rect x="612.813" y="236.64" width="1.581" height="48.422" style="fill:#00101e;"/><rect x="620.975" y="236.642" width="4.603" height="48.42" style="fill:#052339;"/><rect x="620.977" y="236.64" width="1.579" height="48.422" style="fill:#00101e;"/><rect x="629.139" y="236.642" width="4.603" height="48.42" style="fill:#052339;"/><rect x="629.139" y="236.64" width="1.581" height="48.422" style="fill:#00101e;"/><rect x="637.301" y="236.642" width="4.603" height="48.42" style="fill:#052339;"/><rect x="637.301" y="236.64" width="1.581" height="48.422" style="fill:#00101e;"/><rect x="645.466" y="236.642" width="4.603" height="48.42" style="fill:#052339;"/><path d="M645.467,236.641l-0,48.422l1.58,-0l0,-48.422l-1.58,-0Z" style="fill:#00101e;fill-rule:nonzero;"/><rect x="653.628" y="236.642" width="4.603" height="48.42" style="fill:#052339;"/><rect x="653.628" y="236.64" width="1.581" height="48.422" style="fill:#00101e;"/><rect x="661.792" y="236.642" width="4.603" height="48.42" style="fill:#052339;"/><rect x="661.792" y="236.64" width="1.579" height="48.422" style="fill:#00101e;"/><rect x="555.711" y="287.075" width="43.036" height="53.434" style="fill:#ff162b;"/><rect x="461.378" y="287.075" width="94.331" height="53.434" style="fill:#ca1859;"/><rect x="464.944" y="290.077" width="4.603" height="48.42" style="fill:#9b1149;"/><rect x="464.944" y="290.077" width="1.581" height="48.42" style="fill:#69173a;"/><rect x="473.108" y="290.077" width="4.603" height="48.42" style="fill:#9b1149;"/><rect x="473.108" y="290.077" width="1.579" height="48.42" style="fill:#69173a;"/><rect x="481.271" y="290.077" width="4.603" height="48.42" style="fill:#9b1149;"/><rect x="481.271" y="290.077" width="1.581" height="48.42" style="fill:#69173a;"/><rect x="489.435" y="290.077" width="4.603" height="48.42" style="fill:#9b1149;"/><rect x="489.435" y="290.077" width="1.581" height="48.42" style="fill:#69173a;"/><rect x="497.597" y="290.077" width="4.603" height="48.42" style="fill:#9b1149;"/><rect x="497.597" y="290.077" width="1.581" height="48.42" style="fill:#69173a;"/><rect x="505.759" y="290.077" width="4.603" height="48.42" style="fill:#9b1149;"/><rect x="505.761" y="290.077" width="1.579" height="48.42" style="fill:#69173a;"/><rect x="513.924" y="290.077" width="4.603" height="48.42" style="fill:#9b1149;"/><rect x="513.924" y="290.077" width="1.581" height="48.42" style="fill:#69173a;"/><rect x="522.086" y="290.077" width="4.603" height="48.42" style="fill:#9b1149;"/><rect x="522.086" y="290.077" width="1.581" height="48.42" style="fill:#69173a;"/><rect x="530.25" y="290.077" width="4.603" height="48.42" style="fill:#9b1149;"/><path d="M530.251,290.076l0,48.42l1.581,-0l0,-48.42l-1.581,-0Z" style="fill:#69173a;fill-rule:nonzero;"/><rect x="538.415" y="290.077" width="4.601" height="48.42" style="fill:#9b1149;"/><rect x="538.415" y="290.077" width="1.579" height="48.42" style="fill:#69173a;"/><rect x="546.577" y="290.077" width="4.603" height="48.42" style="fill:#9b1149;"/><rect x="546.579" y="290.077" width="1.579" height="48.42" style="fill:#69173a;"/><rect x="654.594" y="287.075" width="43.036" height="53.434" style="fill:#ffb300;"/><rect x="560.261" y="287.075" width="94.333" height="53.434" style="fill:#ff8c00;"/><rect x="563.827" y="290.077" width="4.603" height="48.42" style="fill:#fc6400;"/><rect x="563.829" y="290.077" width="1.579" height="48.42" style="fill:#d04e00;"/><rect x="571.991" y="290.077" width="4.603" height="48.42" style="fill:#fc6400;"/><rect x="571.991" y="290.077" width="1.581" height="48.42" style="fill:#d04e00;"/><rect x="580.153" y="290.077" width="4.603" height="48.42" style="fill:#fc6400;"/><rect x="580.153" y="290.077" width="1.581" height="48.42" style="fill:#d04e00;"/><rect x="588.318" y="290.077" width="4.603" height="48.42" style="fill:#fc6400;"/><rect x="588.318" y="290.077" width="1.581" height="48.42" style="fill:#d04e00;"/><rect x="596.482" y="290.077" width="4.601" height="48.42" style="fill:#fc6400;"/><rect x="596.482" y="290.077" width="1.579" height="48.42" style="fill:#d04e00;"/><rect x="604.644" y="290.077" width="4.603" height="48.42" style="fill:#fc6400;"/><rect x="604.644" y="290.077" width="1.579" height="48.42" style="fill:#d04e00;"/><rect x="612.807" y="290.077" width="4.603" height="48.42" style="fill:#fc6400;"/><rect x="612.807" y="290.077" width="1.581" height="48.42" style="fill:#d04e00;"/><rect x="620.971" y="290.077" width="4.601" height="48.42" style="fill:#fc6400;"/><rect x="620.973" y="290.077" width="1.579" height="48.42" style="fill:#d04e00;"/><rect x="629.135" y="290.077" width="4.603" height="48.42" style="fill:#fc6400;"/><path d="M629.136,290.076l0,48.42l1.579,-0l0,-48.42l-1.579,-0Z" style="fill:#d04e00;fill-rule:nonzero;"/><rect x="637.297" y="290.077" width="4.603" height="48.42" style="fill:#fc6400;"/><rect x="637.299" y="290.077" width="1.579" height="48.42" style="fill:#d04e00;"/><rect x="645.462" y="290.077" width="4.603" height="48.42" style="fill:#fc6400;"/><rect x="645.464" y="290.077" width="1.579" height="48.42" style="fill:#d04e00;"/><rect x="1073.5" y="287.075" width="43.036" height="53.434" style="fill:#ffb300;"/><rect x="979.165" y="287.075" width="94.331" height="53.434" style="fill:#ff8c00;"/><rect x="982.731" y="290.077" width="4.601" height="48.42" style="fill:#fc6400;"/><rect x="982.733" y="290.077" width="1.577" height="48.42" style="fill:#d04e00;"/><rect x="990.895" y="290.077" width="4.601" height="48.42" style="fill:#fc6400;"/><rect x="990.895" y="290.077" width="1.579" height="48.42" style="fill:#d04e00;"/><rect x="999.057" y="290.077" width="4.603" height="48.42" style="fill:#fc6400;"/><rect x="999.059" y="290.077" width="1.577" height="48.42" style="fill:#d04e00;"/><rect x="1007.22" y="290.077" width="4.603" height="48.42" style="fill:#fc6400;"/><rect x="1007.22" y="290.077" width="1.581" height="48.42" style="fill:#d04e00;"/><rect x="1015.38" y="290.077" width="4.603" height="48.42" style="fill:#fc6400;"/><rect x="1015.38" y="290.077" width="1.581" height="48.42" style="fill:#d04e00;"/><rect x="1023.55" y="290.077" width="4.603" height="48.42" style="fill:#fc6400;"/><rect x="1023.55" y="290.077" width="1.581" height="48.42" style="fill:#d04e00;"/><rect x="1031.71" y="290.077" width="4.603" height="48.42" style="fill:#fc6400;"/><rect x="1031.71" y="290.077" width="1.581" height="48.42" style="fill:#d04e00;"/><rect x="1039.87" y="290.077" width="4.603" height="48.42" style="fill:#fc6400;"/><rect x="1039.88" y="290.077" width="1.579" height="48.42" style="fill:#d04e00;"/><rect x="1048.04" y="290.077" width="4.603" height="48.42" style="fill:#fc6400;"/><path d="M1048.04,290.076l-0,48.42l1.581,-0l-0,-48.42l-1.581,-0Z" style="fill:#d04e00;fill-rule:nonzero;"/><rect x="1056.2" y="290.077" width="4.603" height="48.42" style="fill:#fc6400;"/><rect x="1056.2" y="290.077" width="1.581" height="48.42" style="fill:#d04e00;"/><rect x="1064.36" y="290.077" width="4.603" height="48.42" style="fill:#fc6400;"/><rect x="1064.36" y="290.077" width="1.581" height="48.42" style="fill:#d04e00;"/><rect x="760.225" y="287.075" width="43.034" height="53.434" style="fill:#a8f3ff;"/><rect x="665.892" y="287.075" width="94.333" height="53.434" style="fill:#77d4e6;"/><rect x="669.457" y="290.077" width="4.603" height="48.42" style="fill:#009cac;"/><rect x="669.459" y="290.077" width="1.579" height="48.42" style="fill:#007086;"/><rect x="677.622" y="290.077" width="4.603" height="48.42" style="fill:#009cac;"/><rect x="677.622" y="290.077" width="1.581" height="48.42" style="fill:#007086;"/><rect x="685.784" y="290.077" width="4.603" height="48.42" style="fill:#009cac;"/><rect x="685.784" y="290.077" width="1.581" height="48.42" style="fill:#007086;"/><rect x="693.946" y="290.077" width="4.603" height="48.42" style="fill:#009cac;"/><rect x="693.948" y="290.077" width="1.579" height="48.42" style="fill:#007086;"/><rect x="702.111" y="290.077" width="4.603" height="48.42" style="fill:#009cac;"/><rect x="702.111" y="290.077" width="1.581" height="48.42" style="fill:#007086;"/><rect x="710.273" y="290.077" width="4.603" height="48.42" style="fill:#009cac;"/><rect x="710.275" y="290.077" width="1.579" height="48.42" style="fill:#007086;"/><rect x="718.437" y="290.077" width="4.603" height="48.42" style="fill:#009cac;"/><rect x="718.437" y="290.077" width="1.579" height="48.42" style="fill:#007086;"/><rect x="726.599" y="290.077" width="4.603" height="48.42" style="fill:#009cac;"/><rect x="726.599" y="290.077" width="1.581" height="48.42" style="fill:#007086;"/><rect x="734.764" y="290.077" width="4.603" height="48.42" style="fill:#009cac;"/><path d="M734.764,290.076l0,48.42l1.581,-0l0,-48.42l-1.581,-0Z" style="fill:#007086;fill-rule:nonzero;"/><rect x="742.926" y="290.077" width="4.603" height="48.42" style="fill:#009cac;"/><rect x="742.926" y="290.077" width="1.579" height="48.42" style="fill:#007086;"/><rect x="751.09" y="290.077" width="4.603" height="48.42" style="fill:#009cac;"/><rect x="751.09" y="290.077" width="1.579" height="48.42" style="fill:#007086;"/><path d="M1167.51,392.265l-33.077,0c-3.229,0 -5.847,-2.616 -5.847,-5.844c-0,-3.229 2.618,-5.847 5.847,-5.847l33.077,-0c3.229,-0 5.845,2.618 5.845,5.847c-0,3.228 -2.616,5.844 -5.845,5.844m-56.174,0l-33.077,0c-3.227,0 -5.845,-2.616 -5.845,-5.844c0,-3.229 2.618,-5.847 5.845,-5.847l33.077,-0c3.229,-0 5.845,2.618 5.845,5.847c-0,3.228 -2.616,5.844 -5.845,5.844m-56.172,0l-33.077,0c-3.229,0 -5.847,-2.616 -5.847,-5.844c0,-3.229 2.618,-5.847 5.847,-5.847l33.077,-0c3.227,-0 5.845,2.618 5.845,5.847c-0,3.228 -2.618,5.844 -5.845,5.844m-56.174,0l-33.077,0c-3.229,0 -5.847,-2.616 -5.847,-5.844c0,-3.229 2.618,-5.847 5.847,-5.847l33.077,-0c3.229,-0 5.845,2.618 5.845,5.847c-0,3.228 -2.616,5.844 -5.845,5.844m-56.174,0l-33.077,0c-3.227,0 -5.845,-2.616 -5.845,-5.844c0,-3.229 2.618,-5.847 5.845,-5.847l33.077,-0c3.229,-0 5.845,2.618 5.845,5.847c-0,3.228 -2.616,5.844 -5.845,5.844m-56.172,0l-33.077,0c-3.229,0 -5.847,-2.616 -5.847,-5.844c0,-3.229 2.618,-5.847 5.847,-5.847l33.077,-0c3.227,-0 5.843,2.618 5.843,5.847c-0,3.228 -2.616,5.844 -5.843,5.844m-56.174,0l-33.077,0c-3.229,0 -5.847,-2.616 -5.847,-5.844c0,-3.229 2.618,-5.847 5.847,-5.847l33.077,-0c3.229,-0 5.845,2.618 5.845,5.847c-0,3.228 -2.616,5.844 -5.845,5.844m-43.819,-21.138l-21.828,21.828l-749.922,0l28.373,106.284c9.727,48.471 52.298,83.346 101.734,83.346l777.407,0l6.914,-30.189l76.488,-23.071c87.512,-30.906 132.285,-66.69 155.091,-93.843c15.136,-18.02 23.359,-40.824 23.359,-64.355l-397.616,0Z" style="fill:#052339;fill-rule:nonzero;"/><path d="M1167.51,392.265l-33.077,0c-3.229,0 -5.847,-2.616 -5.847,-5.844c-0,-3.229 2.618,-5.847 5.847,-5.847l33.077,-0c3.229,-0 5.845,2.618 5.845,5.847c-0,3.228 -2.616,5.844 -5.845,5.844m-56.174,0l-33.077,0c-3.227,0 -5.845,-2.616 -5.845,-5.844c0,-3.229 2.618,-5.847 5.845,-5.847l33.077,-0c3.229,-0 5.845,2.618 5.845,5.847c-0,3.228 -2.616,5.844 -5.845,5.844m-56.172,0l-33.077,0c-3.229,0 -5.847,-2.616 -5.847,-5.844c0,-3.229 2.618,-5.847 5.847,-5.847l33.077,-0c3.227,-0 5.845,2.618 5.845,5.847c-0,3.228 -2.618,5.844 -5.845,5.844m-56.174,0l-33.077,0c-3.229,0 -5.847,-2.616 -5.847,-5.844c0,-3.229 2.618,-5.847 5.847,-5.847l33.077,-0c3.229,-0 5.845,2.618 5.845,5.847c-0,3.228 -2.616,5.844 -5.845,5.844m-27.208,-21.138l-218.094,211.458l168.727,0l6.914,-30.189l76.488,-23.071c87.512,-30.906 132.285,-66.69 155.091,-93.843c15.136,-18.02 23.359,-40.824 23.359,-64.355l-212.485,0Z" style="fill:#092c43;fill-rule:nonzero;"/><path d="M17.064,401.047l18.159,68.021l1089.52,0c15.9,-11.939 27.59,-23.374 36.17,-33.586c8.558,-10.192 14.904,-21.916 18.805,-34.435l-1162.65,-0Z" style="fill:#0d384f;fill-rule:nonzero;"/><path d="M1160.91,435.481c8.56,-10.189 14.906,-21.915 18.806,-34.435l-220.97,0l-60.403,68.022l226.398,-0c15.901,-11.939 27.588,-23.375 36.169,-33.587" style="fill:#0b4259;fill-rule:nonzero;"/><path d="M784.514,383.989l-16.789,0l-0,-0.418l-2.066,0l-0,0.418l-11.777,0l0,-0.418l-2.064,0l0,0.418l-11.78,0l-0,-0.418l-2.066,0l-0,0.418l-11.777,0l0,-0.418l-2.066,0l0,0.418l-11.778,0l-0,-0.418l-2.064,0l-0,0.418l-11.781,0l-0,-0.418l-2.064,0l-0,0.418l-11.779,0l0,-0.418l-2.064,0l0,0.418l-11.778,0l-0,-0.418l-2.066,0l-0,0.418l-11.779,0l0,-0.418l-2.064,0l0,0.418l-11.778,0l-0,-0.418l-2.066,0l-0,0.418l-11.777,0l-0,-0.418l-2.066,0l0,0.418l-11.781,0l0,-0.418l-2.064,0l0,0.418l-11.778,0l-0,-0.418l-2.064,0l-0,0.418l-11.779,0l0,-0.418l-2.066,0l0,0.418l-11.778,0l-0,-0.418l-2.066,0l-0,0.418l-11.777,0l0,-0.418l-2.066,0l0,0.418l-11.779,0l0,-0.418l-2.066,0l0,0.418l-11.776,0l-0,-0.418l-2.066,0l-0,0.418l-11.779,0l0,-0.418l-2.064,0l0,0.418l-11.778,0l-0,-0.418l-2.066,0l-0,0.418l-11.779,0l0,-0.418l-2.066,0l0,0.418l-11.777,0l0,-0.418l-2.065,0l-0,0.418l-11.779,0l-0,-0.418l-2.064,0l-0,0.418l-11.779,0l0,-0.418l-2.066,0l0,0.418l-11.778,0l-0,-0.418l-2.066,0l-0,0.418l-11.779,0l0,-0.418l-2.064,0l0,0.418l-11.779,0l0,-0.418l-2.063,0l-0,0.418l-11.779,0l-0,-0.418l-2.066,0l-0,0.418l-11.779,0l0,-0.418l-2.064,0l0,0.418l-11.778,0l-0,-0.418l-2.066,0l-0,0.418l-11.779,0l0,-0.418l-2.066,0l0,0.418l-11.779,0l0,-0.418l-2.063,0l-0,0.418l-11.779,0l-0,-0.418l-2.066,0l-0,0.418l-11.777,0l0,-0.418l-2.066,0l0,0.418l-11.778,0l-0,-0.418l-2.064,0l-0,0.418l-11.781,0l0,-0.418l-2.064,0l0,0.418l-11.778,0l-0,-0.418l-2.066,0l-0,0.418l-11.777,0l-0,-0.418l-2.066,0l0,0.418l-11.779,0l0,-0.418l-2.064,0l0,0.418l-11.78,0l-0,-0.418l-2.064,0l-0,0.418l-11.779,0l0,-0.418l-2.066,0l0,0.418l-11.778,0l-0,-0.418l-2.064,0l-0,0.418l-11.779,0l-0,-0.418l-2.064,0l0,0.418l-11.781,0l0,-0.418l-2.064,0l0,0.418l-11.778,0l-0,-0.418l-2.066,0l-0,0.418l-11.777,0l0,-0.418l-2.066,0l0,0.418l-11.778,0l-0,-0.418l-2.066,0l-0,0.418l-11.779,0l0,-0.418l-2.064,0l0,0.418l-11.779,0l0,-0.418l-2.066,0l0,0.418l-11.776,0l-0,-0.418l-2.066,0l-0,0.418l-11.779,0l0,-0.418l-2.064,0l0,0.418l-11.78,0l-0,-0.418l-2.064,0l-0,0.418l-11.779,0l0,-0.418l-2.066,0l0,0.418l-11.777,0l0,-0.418l-2.065,0l-0,0.418l-11.779,0l-0,-0.418l-2.066,0l-0,0.418l-3.2,0l-0,2.066l3.2,0l-0,9.952l2.066,0l-0,-9.952l11.779,0l-0,9.952l2.065,0l0,-9.952l11.777,0l0,9.952l2.066,0l0,-9.952l11.779,0l-0,9.952l2.064,0l-0,-9.952l11.78,0l0,9.952l2.064,0l0,-9.952l11.779,0l-0,9.952l2.066,0l-0,-9.952l11.776,0l0,9.952l2.066,0l0,-9.952l11.779,0l0,9.952l2.064,0l0,-9.952l11.779,0l-0,9.952l2.066,0l-0,-9.952l11.778,0l0,9.952l2.066,0l0,-9.952l11.777,0l-0,9.952l2.066,0l-0,-9.952l11.778,0l0,9.952l2.064,0l0,-9.952l11.781,0l0,9.952l2.064,0l-0,-9.952l11.779,0l-0,9.952l2.064,0l-0,-9.952l11.778,0l0,9.952l2.066,0l0,-9.952l11.779,0l-0,9.952l2.064,0l-0,-9.952l11.78,0l0,9.952l2.064,0l0,-9.952l11.779,0l0,9.952l2.066,0l-0,-9.952l11.777,0l-0,9.952l2.066,0l-0,-9.952l11.778,0l0,9.952l2.064,0l0,-9.952l11.781,0l-0,9.952l2.064,0l-0,-9.952l11.778,0l0,9.952l2.066,0l0,-9.952l11.777,0l-0,9.952l2.066,0l-0,-9.952l11.779,0l-0,9.952l2.063,0l0,-9.952l11.779,0l0,9.952l2.066,0l0,-9.952l11.779,0l-0,9.952l2.066,0l-0,-9.952l11.778,0l0,9.952l2.064,0l0,-9.952l11.779,0l-0,9.952l2.066,0l-0,-9.952l11.779,0l-0,9.952l2.063,0l0,-9.952l11.779,0l0,9.952l2.064,0l0,-9.952l11.779,0l-0,9.952l2.066,0l-0,-9.952l11.778,0l0,9.952l2.066,0l0,-9.952l11.779,0l-0,9.952l2.064,0l-0,-9.952l11.779,0l-0,9.952l2.065,0l0,-9.952l11.777,0l0,9.952l2.066,0l0,-9.952l11.779,0l-0,9.952l2.066,0l-0,-9.952l11.778,0l0,9.952l2.064,0l0,-9.952l11.779,0l-0,9.952l2.066,0l-0,-9.952l11.776,0l0,9.952l2.066,0l0,-9.952l11.779,0l0,9.952l2.066,0l0,-9.952l11.777,0l-0,9.952l2.066,0l-0,-9.952l11.778,0l0,9.952l2.066,0l0,-9.952l11.779,0l-0,9.952l2.064,0l-0,-9.952l11.778,0l0,9.952l2.064,0l0,-9.952l11.781,0l0,9.952l2.066,0l-0,-9.952l11.777,0l-0,9.952l2.066,0l-0,-9.952l11.778,0l0,9.952l2.064,0l0,-9.952l11.779,0l-0,9.952l2.066,0l-0,-9.952l11.778,0l0,9.952l2.064,0l0,-9.952l11.779,0l-0,9.952l2.064,0l-0,-9.952l11.781,0l-0,9.952l2.064,0l-0,-9.952l11.778,0l0,9.952l2.066,0l0,-9.952l11.777,0l-0,9.952l2.066,0l-0,-9.952l11.78,0l0,9.952l2.064,0l0,-9.952l11.777,0l-0,9.952l2.066,0l-0,-9.952l16.789,0l0,-2.066Z" style="fill:#052339;fill-rule:nonzero;"/><path d="M80.466,560.04c17.853,14.19 40.371,22.545 64.545,22.545l777.405,-0l5.163,-22.545l-847.113,0Z" style="fill:#ff162b;fill-rule:nonzero;"/><path d="M80.466,560.04c17.853,14.19 40.371,22.545 64.545,22.545l627.667,-0l0,-22.545l-692.212,0Z" style="fill:#ca1859;fill-rule:nonzero;"/><path d="M52.603,526.004l962.391,-0c4.641,-1.717 9.161,-3.446 13.555,-5.187l-978.432,-0c0.777,1.761 1.618,3.482 2.486,5.187" style="fill:#a8f3ff;fill-rule:nonzero;"/></g></svg>