<?xml version="1.0" encoding="UTF-8" standalone="no"?><!DOCTYPE svg PUBLIC "-//W3C//DTD SVG 1.1//EN" "http://www.w3.org/Graphics/SVG/1.1/DTD/svg11.dtd"><svg width="100%" height="100%" viewBox="0 0 6779 2214" version="1.1" xmlns="http://www.w3.org/2000/svg" xmlns:xlink="http://www.w3.org/1999/xlink" xml:space="preserve" xmlns:serif="http://www.serif.com/" style="fill-rule:evenodd;clip-rule:evenodd;"><path d="M2010.65,802.522c-147.625,-606.708 -797.917,-930.208 -1377.33,-722.375c-268.041,96.167 -478.375,291.5 -589.791,550.708c-0.024,0.075 -0.037,0.153 -0.037,0.231c0,0.411 0.339,0.75 0.75,0.75c0.224,-0 0.436,-0.1 0.578,-0.272c384.959,-556.5 1135.75,-680.25 1656.75,-235.917c134.334,114.542 233.209,251.708 306.209,407.875c0.268,0.498 0.791,0.81 1.357,0.81c0.845,-0 1.541,-0.696 1.541,-1.542c0,-0.09 -0.008,-0.179 -0.023,-0.268" style="fill:none;fill-rule:nonzero;stroke:#dce8ed;stroke-width:8.33px;"/><path d="M859.279,495.772c67.375,-12.667 123.083,1.625 186.375,24.292c21.111,7.583 36.847,11.847 47.208,12.791c79.958,7.167 144.958,-63.708 176.458,-130.333c0.035,-0.085 0.053,-0.177 0.053,-0.269c0,-0.388 -0.319,-0.708 -0.708,-0.708c-0.154,-0 -0.305,0.05 -0.428,0.144c-84.625,73.291 -163.542,11.291 -242.208,-23.25c-54.139,-23.75 -109.611,-26.195 -166.417,-7.334c-1.75,0.584 -2.625,-0.055 -2.625,-1.916l0,-12.334c0,-1.388 -0.694,-2.083 -2.083,-2.083l-41.709,0c-1.444,0 -2.166,0.708 -2.166,2.125l-1.209,372.125c0.002,0.108 -0.009,0.215 -0.033,0.32c-0.169,0.736 -0.93,1.198 -1.688,1.024c-0.096,-0.022 -0.189,-0.053 -0.279,-0.094l-287.541,-139.792c-1.917,-0.916 -2.875,-0.319 -2.875,1.792l-0,281.167c-0.002,0.929 0.488,1.799 1.291,2.291c119.278,72.362 243.195,135.431 371.75,189.209c69.334,29 137.959,51 210.417,67.333c0.192,0.043 0.387,0.065 0.583,0.065c1.463,-0 2.667,-1.204 2.667,-2.667c0,-0.008 0,-0.015 0,-0.023l-0.292,-252.917c0,-1.444 -0.652,-2.486 -1.958,-3.125l-243.25,-118.458c-1.083,-0.528 -1.625,-1.389 -1.625,-2.583l0,-254.042c-0.002,-1.345 0.969,-2.509 2.292,-2.75" style="fill:none;fill-rule:nonzero;stroke:#5f7283;stroke-width:8.33px;"/><path d="M2294.57,759.022c0.589,0.246 0.974,0.824 0.974,1.461c-0,0.464 -0.204,0.905 -0.557,1.206l-111.167,93.791c-1.111,0.917 -2.333,1.07 -3.666,0.459c-41.834,-19.334 -97.417,-28.959 -135.75,2.083c-0.414,0.324 -0.656,0.821 -0.656,1.346c0,0.647 0.368,1.241 0.947,1.529l112.542,57.958c1.472,0.75 2.445,1.917 2.917,3.5l4.416,14.459c0.019,0.054 0.039,0.108 0.062,0.161c0.441,1.03 1.634,1.521 2.642,1.089c0.059,-0.025 0.116,-0.053 0.171,-0.084c82.389,-45.416 158.403,-99.763 228.042,-163.041c1.083,-1 2.361,-1.486 3.833,-1.459l78.084,1.417c1.389,0.028 2.458,-0.542 3.208,-1.708c19.583,-30.889 39.125,-61.82 58.625,-92.792c4.722,-7.472 10.528,-14.055 17.417,-19.75c43.416,-35.75 89.041,-79.458 157.291,-142.667c22.75,-21.055 36.612,-46.75 41.584,-77.083c0.008,-0.048 0.014,-0.096 0.017,-0.145c0.056,-0.821 -0.592,-1.544 -1.436,-1.601c-0.041,-0.003 -0.082,-0.004 -0.123,-0.004c-47.583,1.167 -79,16.625 -120.5,45.625c-61.111,42.778 -118.042,90.708 -170.792,143.792c-0.972,1 -2.166,1.583 -3.583,1.75c-85.417,11.555 -170.847,23.194 -256.292,34.916c-20.388,2.806 -33.972,15.112 -40.75,36.917c-0.388,1.222 0.014,2.083 1.209,2.583l131.291,54.292" style="fill:none;fill-rule:nonzero;stroke:#5eafc8;stroke-width:8.33px;"/><path d="M162.612,936.564c140.5,146.791 309.458,271.166 491.333,362.125c1.25,0.639 2.514,0.666 3.792,0.083c79.833,-35.583 153.667,-36.292 236.167,-11.583c72.916,21.805 145.861,43.555 218.833,65.25c22.833,6.791 43.75,6.458 60.083,-9.917c38.334,-38.417 76.709,-76.542 115.125,-114.375c0.186,-0.173 0.292,-0.416 0.292,-0.67c-0,-0.472 -0.364,-0.87 -0.833,-0.913c-448.75,-59.959 -842.375,-283.209 -1124.25,-636.042c-0.214,-0.264 -0.536,-0.418 -0.875,-0.418c-0.617,0 -1.125,0.508 -1.125,1.125c-0,0.001 -0,0.001 -0,0.001l-0,341.709c-0,1.389 0.486,2.597 1.458,3.625" style="fill:none;fill-rule:nonzero;stroke:#5f7283;stroke-width:8.33px;"/><path d="M589.029,1332.27c-225.917,-126.875 -418.5,-310.5 -569.5,-519.875c-1.695,-2.361 -2.472,-2.083 -2.334,0.833c0.306,5.806 0.931,14.542 1.875,26.209c25.112,305.694 70.903,602.43 137.375,890.208c0.306,1.417 1.153,1.875 2.542,1.375c21.639,-8.111 37.639,-17.222 48,-27.333c112.695,-110.195 225.292,-220.5 337.792,-330.917c14.25,-14 29.055,-26.625 44.416,-37.875c1.306,-0.972 1.25,-1.847 -0.166,-2.625" style="fill:none;fill-rule:nonzero;stroke:#5f7283;stroke-width:8.33px;"/><path d="M951.82,1466.9c59.875,-47.708 141.834,-74.25 218.667,-56.292c54.208,12.625 116.167,30.875 165.25,35.375c86.208,7.834 174.375,-8.708 233.583,-74.75c130.167,-145.194 272.834,-276.763 428,-394.708c0.249,-0.18 0.396,-0.469 0.396,-0.776c0,-0.392 -0.24,-0.746 -0.604,-0.891c-48.708,-20.208 -104.417,-45.583 -151.25,-54.666c-96.875,-18.75 -218.458,12.75 -290.167,83.875c-115.333,114.333 -230.652,228.68 -345.958,343.041c-27.542,27.292 -55.25,28.417 -92.667,17.167c-69.222,-20.833 -138.458,-41.569 -207.708,-62.208c-33.028,-9.861 -57.861,-15.528 -74.5,-17c-71.083,-6.292 -146.167,16.083 -205.333,54.041c-38.459,24.667 -76.917,65.959 -112.25,100.959c-81,80.139 -162.25,160.028 -243.75,239.666c-43.584,42.542 -72.792,65.584 -128.459,74.875c-7.75,1.278 -15.638,2.639 -23.666,4.084c-1.667,0.278 -1.722,0.778 -0.167,1.5c156,72 370.375,84.5 517.792,-14.042c90.805,-60.694 177.236,-135.889 259.291,-225.583c24.806,-27.111 42.639,-45 53.5,-53.667" style="fill:none;fill-rule:nonzero;stroke:#5eafc8;stroke-width:8.33px;"/><path d="M2132.78,934.73c-373.834,287.792 -681.584,660.875 -895.625,1079.5c-1.139,2.278 -0.5,3.042 1.916,2.292l68.125,-21.083c1.556,-0.472 2.695,-1.445 3.417,-2.917c204.556,-407.75 479.458,-760.542 824.708,-1058.38c0.723,-0.639 0.598,-0.958 -0.375,-0.958c-1.055,-0 -1.777,0.514 -2.166,1.541" style="fill:none;fill-rule:nonzero;stroke:#5eafc8;stroke-width:8.33px;"/><path d="M2176.03,1460.36c21.041,89.25 85.875,162.875 178.25,182.334c167.416,35.291 332.041,-69.209 346.5,-244.959c0.055,-0.861 -0.334,-1.291 -1.167,-1.291l-168.583,-0c-1.301,-0.002 -2.453,0.891 -2.792,2.166c-6.722,24.889 -16.305,44.598 -28.75,59.125c-38.25,44.584 -118.75,41.459 -144.125,-17.958c-35.042,-82.083 12.792,-265.917 122.958,-273.875c59.125,-4.292 72.167,35.833 71.334,85.625c-0.001,0.014 -0.001,0.028 -0.001,0.042c0,1.188 0.978,2.166 2.167,2.166l169.709,0c1.416,0 2.166,-0.708 2.25,-2.125c1.166,-24.333 -0.611,-48.236 -5.334,-71.708c-36.083,-179.417 -251.083,-212.208 -385.333,-130.917c-133.333,80.75 -191.625,264.792 -157.083,411.375" style="fill:none;fill-rule:nonzero;stroke:#5e879a;stroke-width:8.33px;"/><path d="M3720.74,1362.31c5.708,-68.875 37.958,-173.084 114.125,-193.167c20.695,-5.472 38.833,-5.264 54.417,0.625c35.916,13.542 35.208,48.75 37.583,82.042c0.083,1.278 0.778,1.916 2.083,1.916l170.625,0c1.167,0 1.723,-0.583 1.667,-1.75c-0.75,-20.041 -0.333,-42.208 -3.583,-60.5c-18.334,-103.041 -90.792,-167.333 -191.834,-181.625c-241.416,-34.083 -382.125,199.334 -359.416,411.292c35.5,331.792 501.208,284.917 531.5,-22.375c0.139,-1.555 -0.57,-2.333 -2.125,-2.333l-167.792,-0c-1.285,0.006 -2.414,0.861 -2.75,2.083c-11.875,41.583 -35.875,80.958 -80.75,88.208c-80.625,13.042 -109.25,-58.166 -103.75,-124.416" style="fill:none;fill-rule:nonzero;stroke:#5e879a;stroke-width:8.33px;"/><path d="M5811.36,1351.65l114.542,0c1.528,0 2.472,-0.75 2.833,-2.25l18.792,-84.042c0.016,-0.07 0.028,-0.141 0.036,-0.213c0.109,-1 -0.643,-1.914 -1.666,-2.025c-0.068,-0.008 -0.136,-0.011 -0.204,-0.012l-98.166,0c-1.889,0 -2.736,-0.93 -2.542,-2.791c7.208,-68.917 24.833,-116.125 91,-146.917c1.306,-0.611 1.542,-1.5 0.708,-2.667c-91.625,-127.083 -295.875,-132.416 -412.833,-40.083c-105.167,82.958 -146,217.708 -129.375,348.333c19.792,155.834 138.542,239.917 291.458,229.25c94.667,-6.583 170.431,-48.097 227.292,-124.541c0.972,-1.278 0.681,-2.153 -0.875,-2.625c-86.25,-25.5 -107.25,-83.375 -102.75,-167.75c0.056,-1.111 0.639,-1.667 1.75,-1.667" style="fill:none;fill-rule:nonzero;stroke:#5e879a;stroke-width:8.33px;"/><path d="M2881.4,1632.65c0.916,0.583 1.625,0.778 2.125,0.583c1.596,-0.707 2.758,-2.117 3.125,-3.791l124.291,-601.75c0.834,-4.056 -0.819,-6.07 -4.958,-6.042l-173.125,1.125c-1.389,0 -2.222,0.681 -2.5,2.042l-127.625,606.041c-0.01,0.056 -0.015,0.111 -0.015,0.167c-0,0.503 0.414,0.917 0.916,0.917c0.006,-0 0.011,-0 0.016,-0l174.958,-0.125c1.028,-0 1.958,0.278 2.792,0.833" style="fill:none;fill-rule:nonzero;stroke:#5e879a;stroke-width:8.33px;"/><path d="M3449.4,1357.56c49.055,-29.195 77.583,-71.82 85.583,-127.875c22,-154.375 -92.667,-205.792 -222.833,-206.917c-73.25,-0.639 -147.695,-1.153 -223.334,-1.542c-2.644,-0.031 -4.963,1.849 -5.5,4.459l-125.666,604.291c-0.25,1.223 0.25,1.834 1.5,1.834l174.208,0.083c1.667,0 2.667,-0.805 3,-2.417l43.75,-209.875c0.306,-1.583 1.278,-2.388 2.917,-2.416c15.861,-0.222 38.18,0.416 66.958,1.916c28.917,1.542 49.208,7.5 45.958,41.959c-5.416,57 -15.625,112.375 1,168.75c0.35,1.202 1.457,2.036 2.709,2.041l186.833,0c2.306,0 3.472,-1.152 3.5,-3.458l0.5,-47.333c-0.001,-1.429 -0.726,-2.754 -1.917,-3.5c-25.916,-16.042 -22.583,-19.792 -19.875,-51.584c2.612,-30.666 4.181,-61.347 4.709,-92.041c0.472,-27.695 -7.709,-52.167 -24.542,-73.417c-0.917,-1.194 -0.736,-2.18 0.542,-2.958" style="fill:none;fill-rule:nonzero;stroke:#5e879a;stroke-width:8.33px;"/><path d="M4126.78,1418.27c-11,189 153.875,256 313.208,221.167c77.583,-16.959 142.458,-68.75 168.583,-144.917c13.139,-38.361 22.737,-71.736 28.792,-100.125c26.333,-123.361 51.833,-246.708 76.5,-370.042c0.417,-2.083 -0.43,-3.111 -2.542,-3.083l-178.25,1.417c-1.138,-0 -1.819,0.569 -2.041,1.708c-23.195,114.25 -46.792,228.403 -70.792,342.458c-11.875,56.334 -27.917,129 -103.292,119.709c-26.708,-3.292 -46.75,-15.792 -51.291,-43.084c-3.459,-20.875 3.833,-64 8.958,-89.458c22.139,-110.444 44.5,-220.653 67.083,-330.625c0.012,-0.06 0.021,-0.121 0.026,-0.182c0.085,-0.956 -0.612,-1.812 -1.546,-1.895c-0.062,-0.006 -0.125,-0.008 -0.188,-0.006l-177.292,1.291c-0.805,0.028 -1.291,0.431 -1.458,1.209c-20.528,98.055 -40.458,196.222 -59.792,294.5c-8.388,42.75 -13.277,76.069 -14.666,99.958" style="fill:none;fill-rule:nonzero;stroke:#5e879a;stroke-width:8.33px;"/><path d="M4658.74,1630.02c-0.019,0.096 -0.029,0.194 -0.029,0.292c0,0.818 0.669,1.493 1.487,1.5l180.584,0.166c0.708,-0.006 1.32,-0.513 1.458,-1.208l125.25,-607.292c0.019,-0.096 0.029,-0.193 0.029,-0.291c-0,-0.818 -0.669,-1.493 -1.487,-1.5l-178.292,0.791c-0.696,0.002 -1.304,0.489 -1.458,1.167l-127.542,606.375" style="fill:none;fill-rule:nonzero;stroke:#5e879a;stroke-width:8.33px;"/><path d="M4946.32,1180.15c-0.016,0.083 -0.025,0.166 -0.025,0.25c0,0.686 0.564,1.25 1.25,1.25c0.009,0 0.017,0 0.025,0l149.875,0.042c0.009,-0 0.017,-0 0.026,-0c0.685,-0 1.25,0.564 1.25,1.25c-0,0.084 -0.009,0.167 -0.026,0.25l-91.458,447.166c-0.017,0.083 -0.025,0.167 -0.025,0.251c-0,0.685 0.564,1.25 1.25,1.25c0.008,-0 0.017,-0 0.025,-0.001l179.667,0c0.585,-0.007 1.091,-0.426 1.208,-1l93.125,-448.291c0.117,-0.574 0.623,-0.992 1.208,-1l146.917,0.166c0.601,0.013 1.13,-0.41 1.25,-1l31.917,-157.083c0.017,-0.082 0.025,-0.166 0.025,-0.25c0,-0.686 -0.564,-1.25 -1.25,-1.25c-0.008,-0 -0.017,-0 -0.025,0l-482.834,-0.958c-0.601,-0.012 -1.13,0.411 -1.25,1l-32.125,157.958" style="fill:none;fill-rule:nonzero;stroke:#5e879a;stroke-width:8.33px;"/><path d="M5941.15,1404.81c-5.167,-11.5 -2.167,-26.75 -0.584,-37.084c0.25,-1.777 -0.513,-2.666 -2.291,-2.666l-108.417,0.416c-1.333,0 -2.069,0.667 -2.208,2c-5.584,57.945 13.083,99.056 56,123.334c89,50.375 258.583,9.375 235.833,-122.542c-3.111,-18.028 -13.389,-35.028 -30.833,-51c-0.425,-0.387 -0.667,-0.935 -0.667,-1.509c0,-0.771 0.437,-1.478 1.125,-1.824c34.306,-16.917 53.097,-43.181 56.375,-78.792c5.917,-64.75 -43.042,-110.75 -103.75,-120c-89.917,-13.75 -170.333,31.958 -176.625,129.458c-0.083,1.362 0.542,2.042 1.875,2.042l103.958,0.542c2.042,0.003 3.745,-1.608 3.834,-3.625c0.75,-14.042 5.583,-30.417 18.958,-36.959c14.333,-6.958 37.625,-1 38.458,18.125c1.709,39.875 -37.166,40.209 -64.833,39.542c-1.417,-0.028 -2.278,0.653 -2.583,2.042l-17.5,79.833c-0.306,1.445 0.278,2.195 1.75,2.25c18.958,0.667 38.208,0.167 48.166,10.458c10.917,11.292 5.042,37.584 -2.833,47.667c-13.208,16.875 -43.208,20.667 -53.208,-1.708" style="fill:none;fill-rule:nonzero;stroke:#5eafc8;stroke-width:8.33px;"/><path d="M6454.57,1423.61c11.959,38.875 44.25,75.459 84.75,84.25c71.139,15.445 126.125,-1.375 164.959,-50.458c44.833,-56.667 62.458,-148.375 55.916,-219.208c-6.555,-70.889 -43.708,-111.611 -111.458,-122.167c-48.139,-7.528 -89.333,3.306 -123.583,32.5c-64.709,55.208 -94.709,196.708 -70.584,275.083" style="fill:none;fill-rule:nonzero;stroke:#5eafc8;stroke-width:8.33px;"/><path d="M6283.69,1248.56c3.792,-15.042 13.834,-35.375 29.084,-41.292c26.833,-10.458 35.666,6.958 36,30.125c0.028,1.833 0.944,2.75 2.75,2.75l101.416,0.125c1.334,0 2.07,-0.667 2.209,-2c10.125,-94.167 -69.334,-132.625 -150.292,-121.125c-63.375,8.958 -102.792,46.708 -130.292,104.5c-41.916,88.125 -60.583,256.583 69.917,287.333c101.083,23.792 195.167,-35.625 195.417,-144.791c0.25,-89.334 -72.084,-134.917 -154.375,-113.792c-1.639,0.417 -2.25,-0.194 -1.834,-1.833" style="fill:none;fill-rule:nonzero;stroke:#5eafc8;stroke-width:8.33px;"/><path d="M1012.7,2186.31c130.917,18.861 257.848,9.861 380.792,-27c410.125,-122.959 722.333,-528.209 689.917,-963.125c-0.028,-0.252 -0.131,-0.492 -0.296,-0.687c-0.443,-0.524 -1.223,-0.603 -1.73,-0.175c-0.198,0.167 -0.335,0.397 -0.391,0.653c-42.333,175.792 -119.083,349.917 -227.875,494.375c-207.792,275.834 -499.083,436.417 -840.458,492.959c-0.318,0.048 -0.61,0.197 -0.833,0.425c-0.575,0.587 -0.552,1.558 0.052,2.15c0.227,0.221 0.514,0.37 0.822,0.425" style="fill:none;fill-rule:nonzero;stroke:#dce8ed;stroke-width:8.33px;"/><path d="M1641.24,1483.36c-90.222,120.056 -172.167,245.514 -245.833,376.375c-0.065,0.125 -0.099,0.264 -0.099,0.405c-0,0.48 0.395,0.875 0.875,0.875c0.075,-0 0.151,-0.01 0.224,-0.03c107.694,-29.305 206.708,-76.638 297.041,-142c1.362,-1 2.056,-2.347 2.084,-4.041l1.5,-244.667c-0,-2.055 -0.986,-2.861 -2.959,-2.417l-44.541,10.125c-3.417,0.778 -6.181,2.57 -8.292,5.375" style="fill:none;fill-rule:nonzero;stroke:#5f7283;stroke-width:8.33px;"/><path d="M445.737,1848.56c98.111,21.861 197.139,38.111 297.083,48.75c1.417,0.166 2.625,-0.278 3.625,-1.334c118.417,-123 199.056,-204.75 241.917,-245.25c39.861,-37.611 66.278,-61.555 79.25,-71.833c45.611,-36.167 97.514,-58.667 155.708,-67.5c0.533,-0.022 0.96,-0.467 0.96,-1c-0,-0.549 -0.452,-1.001 -1.001,-1.001c-0.014,0 -0.028,0.001 -0.042,0.001c-81.333,-4.583 -161.736,-15.708 -241.208,-33.375c-1.222,-0.278 -2.375,-0.083 -3.459,0.583c-24.277,14.75 -42.513,29.084 -54.708,43c-76.222,87 -160.889,164.542 -254,232.625c-68.417,50.042 -139.708,82.334 -224.042,93.75c-4.805,0.667 -4.833,1.528 -0.083,2.584" style="fill:none;fill-rule:nonzero;stroke:#5f7283;stroke-width:8.33px;"/><path d="M1428.74,1537.65c-86.417,113.778 -164.555,233 -234.417,357.667c-1.527,2.722 -0.736,3.861 2.375,3.416l91.375,-13.125c1.834,-0.277 3.223,-1.222 4.167,-2.833c77.5,-134.305 163.806,-262.694 258.917,-385.167c0.146,-0.194 0.225,-0.432 0.225,-0.675c0,-0.617 -0.508,-1.125 -1.125,-1.125c-0.047,-0 -0.095,0.003 -0.142,0.009c-64.667,9.361 -129.653,14.791 -194.958,16.291c-2.611,0.056 -2.667,0.459 -0.167,1.209l72.833,21.541c1.667,0.473 1.973,1.403 0.917,2.792" style="fill:none;fill-rule:nonzero;stroke:#5f7283;stroke-width:8.33px;"/><path d="M600.154,2013.23c170.333,65.959 358.708,87.917 517.875,-22.958c5,-3.472 8.944,-8.028 11.833,-13.667c76.972,-149.527 165.486,-291.694 265.542,-426.5c0.217,-0.303 0.334,-0.668 0.334,-1.041c-0,-0.779 -0.508,-1.473 -1.251,-1.709c-81.972,-26.027 -162,-23.513 -240.083,7.542c-59.292,23.625 -107.084,72.542 -156.209,121.292c-73.805,73.222 -146.847,147.18 -219.125,221.875c-55.958,57.791 -102.375,95.166 -178.75,112.791c-2.583,0.612 -2.638,1.403 -0.166,2.375" style="fill:none;fill-rule:nonzero;stroke:#dce8ed;stroke-width:8.33px;"/><path d="M5594.78,1260.27c-24.25,57.917 -50.5,204.75 41.333,225.833c89.083,20.459 143.708,-57.791 161.375,-133.416c13.208,-56.5 21.958,-155.875 -47.375,-178.625c-71.375,-23.417 -128.833,22.958 -155.333,86.208" style="fill:none;fill-rule:nonzero;stroke:#5e879a;stroke-width:8.33px;"/><path d="M3358.9,1193.02c-6.584,-28.333 -103.084,-20.75 -126.042,-20.208c-1.194,0.028 -1.917,0.625 -2.167,1.791l-17.583,86.375c-0.333,1.556 0.292,2.32 1.875,2.292c45.5,-0.167 163.875,16.125 143.917,-70.25" style="fill:none;fill-rule:nonzero;stroke:#5e879a;stroke-width:8.33px;"/><path d="M6563.44,1390.98c0,15.417 9.709,31.917 26.792,28.209c38.625,-8.375 54.25,-142.292 55.125,-171.709c0.417,-14.583 0.375,-35.958 -17.25,-39.5c-50.792,-10.25 -64.75,154.125 -64.667,183" style="fill:none;fill-rule:nonzero;stroke:#5eafc8;stroke-width:8.33px;"/><path d="M6256.49,1398.27c3.5,27.458 38.458,29.25 53.958,14.208c20.75,-20.125 31.375,-83.291 -15.333,-81.666c-31.958,1.125 -42.042,40.708 -38.625,67.458" style="fill:none;fill-rule:nonzero;stroke:#5eafc8;stroke-width:8.33px;"/><path d="M633.32,80.147c579.417,-207.833 1229.71,115.667 1377.33,722.375c0.015,0.089 0.023,0.178 0.023,0.268c0,0.846 -0.696,1.542 -1.541,1.542c-0.566,-0 -1.089,-0.312 -1.357,-0.81c-73,-156.167 -171.875,-293.333 -306.209,-407.875c-521,-444.333 -1271.79,-320.583 -1656.75,235.917c-0.142,0.172 -0.354,0.272 -0.578,0.272c-0.411,-0 -0.75,-0.339 -0.75,-0.75c0,-0.078 0.013,-0.156 0.037,-0.231c111.416,-259.208 321.75,-454.541 589.791,-550.708Z" style="fill:#fcfcfc;fill-rule:nonzero;"/><path d="M856.987,498.522l0,254.042c0,1.194 0.542,2.055 1.625,2.583l243.25,118.458c1.306,0.639 1.958,1.681 1.958,3.125l0.292,252.917c0,0.008 0,0.015 0,0.023c0,1.463 -1.204,2.667 -2.667,2.667c-0.196,-0 -0.391,-0.022 -0.583,-0.065c-72.458,-16.333 -141.083,-38.333 -210.417,-67.333c-128.555,-53.778 -252.472,-116.847 -371.75,-189.209c-0.803,-0.492 -1.293,-1.362 -1.291,-2.291l-0,-281.167c-0,-2.111 0.958,-2.708 2.875,-1.792l287.541,139.792c0.09,0.041 0.183,0.072 0.279,0.094c0.758,0.174 1.519,-0.288 1.688,-1.024c0.024,-0.105 0.035,-0.212 0.033,-0.32l1.209,-372.125c-0,-1.417 0.722,-2.125 2.166,-2.125l41.709,0c1.389,0 2.083,0.695 2.083,2.083l0,12.334c0,1.861 0.875,2.5 2.625,1.916c56.806,-18.861 112.278,-16.416 166.417,7.334c78.666,34.541 157.583,96.541 242.208,23.25c0.123,-0.094 0.274,-0.144 0.428,-0.144c0.389,-0 0.708,0.32 0.708,0.708c0,0.092 -0.018,0.184 -0.053,0.269c-31.5,66.625 -96.5,137.5 -176.458,130.333c-10.361,-0.944 -26.097,-5.208 -47.208,-12.791c-63.292,-22.667 -119,-36.959 -186.375,-24.292c-1.323,0.241 -2.294,1.405 -2.292,2.75Z" style="fill:#021128;fill-rule:nonzero;"/><path d="M2294.57,759.022l-131.291,-54.292c-1.195,-0.5 -1.597,-1.361 -1.209,-2.583c6.778,-21.805 20.362,-34.111 40.75,-36.917c85.445,-11.722 170.875,-23.361 256.292,-34.916c1.417,-0.167 2.611,-0.75 3.583,-1.75c52.75,-53.084 109.681,-101.014 170.792,-143.792c41.5,-29 72.917,-44.458 120.5,-45.625c0.041,-0 0.082,0.001 0.123,0.004c0.844,0.057 1.492,0.78 1.436,1.601c-0.003,0.049 -0.009,0.097 -0.017,0.145c-4.972,30.333 -18.834,56.028 -41.584,77.083c-68.25,63.209 -113.875,106.917 -157.291,142.667c-6.889,5.695 -12.695,12.278 -17.417,19.75c-19.5,30.972 -39.042,61.903 -58.625,92.792c-0.75,1.166 -1.819,1.736 -3.208,1.708l-78.084,-1.417c-1.472,-0.027 -2.75,0.459 -3.833,1.459c-69.639,63.278 -145.653,117.625 -228.042,163.041c-0.055,0.031 -0.112,0.059 -0.171,0.084c-1.008,0.432 -2.201,-0.059 -2.642,-1.089c-0.023,-0.053 -0.043,-0.107 -0.062,-0.161l-4.416,-14.459c-0.472,-1.583 -1.445,-2.75 -2.917,-3.5l-112.542,-57.958c-0.579,-0.288 -0.947,-0.882 -0.947,-1.529c0,-0.525 0.242,-1.022 0.656,-1.346c38.333,-31.042 93.916,-21.417 135.75,-2.083c1.333,0.611 2.555,0.458 3.666,-0.459l111.167,-93.791c0.353,-0.301 0.557,-0.742 0.557,-1.206c-0,-0.637 -0.385,-1.215 -0.974,-1.461Z" style="fill:#008bb3;fill-rule:nonzero;"/><path d="M653.945,1298.69c-181.875,-90.959 -350.833,-215.334 -491.333,-362.125c-0.972,-1.028 -1.458,-2.236 -1.458,-3.625l-0,-341.709c-0,0 -0,-0 -0,-0.001c-0,-0.617 0.508,-1.125 1.125,-1.125c0.339,0 0.661,0.154 0.875,0.418c281.875,352.833 675.5,576.083 1124.25,636.042c0.469,0.043 0.833,0.441 0.833,0.913c-0,0.254 -0.106,0.497 -0.292,0.67c-38.416,37.833 -76.791,75.958 -115.125,114.375c-16.333,16.375 -37.25,16.708 -60.083,9.917c-72.972,-21.695 -145.917,-43.445 -218.833,-65.25c-82.5,-24.709 -156.334,-24 -236.167,11.583c-1.278,0.583 -2.542,0.556 -3.792,-0.083Z" style="fill:#021128;fill-rule:nonzero;"/><path d="M589.029,1332.27c1.416,0.778 1.472,1.653 0.166,2.625c-15.361,11.25 -30.166,23.875 -44.416,37.875c-112.5,110.417 -225.097,220.722 -337.792,330.917c-10.361,10.111 -26.361,19.222 -48,27.333c-1.389,0.5 -2.236,0.042 -2.542,-1.375c-66.472,-287.778 -112.263,-584.514 -137.375,-890.208c-0.944,-11.667 -1.569,-20.403 -1.875,-26.209c-0.138,-2.916 0.639,-3.194 2.334,-0.833c151,209.375 343.583,393 569.5,519.875Z" style="fill:#021128;fill-rule:nonzero;"/><path d="M1170.49,1410.61c-76.833,-17.958 -158.792,8.584 -218.667,56.292c-10.861,8.667 -28.694,26.556 -53.5,53.667c-82.055,89.694 -168.486,164.889 -259.291,225.583c-147.417,98.542 -361.792,86.042 -517.792,14.042c-1.555,-0.722 -1.5,-1.222 0.167,-1.5c8.028,-1.445 15.916,-2.806 23.666,-4.084c55.667,-9.291 84.875,-32.333 128.459,-74.875c81.5,-79.638 162.75,-159.527 243.75,-239.666c35.333,-35 73.791,-76.292 112.25,-100.959c59.166,-37.958 134.25,-60.333 205.333,-54.041c16.639,1.472 41.472,7.139 74.5,17c69.25,20.639 138.486,41.375 207.708,62.208c37.417,11.25 65.125,10.125 92.667,-17.167c115.306,-114.361 230.625,-228.708 345.958,-343.041c71.709,-71.125 193.292,-102.625 290.167,-83.875c46.833,9.083 102.542,34.458 151.25,54.666c0.364,0.145 0.604,0.499 0.604,0.891c0,0.307 -0.147,0.596 -0.396,0.776c-155.166,117.945 -297.833,249.514 -428,394.708c-59.208,66.042 -147.375,82.584 -233.583,74.75c-49.083,-4.5 -111.042,-22.75 -165.25,-35.375Z" style="fill:#008bb3;fill-rule:nonzero;"/><path d="M1237.15,2014.23c214.041,-418.625 521.791,-791.708 895.625,-1079.5c0.389,-1.027 1.111,-1.541 2.166,-1.541c0.973,-0 1.098,0.319 0.375,0.958c-345.25,297.833 -620.152,650.625 -824.708,1058.38c-0.722,1.472 -1.861,2.445 -3.417,2.917l-68.125,21.083c-2.416,0.75 -3.055,-0.014 -1.916,-2.292Z" style="fill:#008bb3;fill-rule:nonzero;"/><path d="M2354.28,1642.69c-92.375,-19.459 -157.209,-93.084 -178.25,-182.334c-34.542,-146.583 23.75,-330.625 157.083,-411.375c134.25,-81.291 349.25,-48.5 385.333,130.917c4.723,23.472 6.5,47.375 5.334,71.708c-0.084,1.417 -0.834,2.125 -2.25,2.125l-169.709,0c-1.189,0 -2.167,-0.978 -2.167,-2.166c0,-0.014 0,-0.028 0.001,-0.042c0.833,-49.792 -12.209,-89.917 -71.334,-85.625c-110.166,7.958 -158,191.792 -122.958,273.875c25.375,59.417 105.875,62.542 144.125,17.958c12.445,-14.527 22.028,-34.236 28.75,-59.125c0.339,-1.275 1.491,-2.168 2.792,-2.166l168.583,-0c0.833,-0 1.222,0.43 1.167,1.291c-14.459,175.75 -179.084,280.25 -346.5,244.959Z" style="fill:#003a56;fill-rule:nonzero;"/><path d="M3834.86,1169.15c-76.167,20.083 -108.417,124.292 -114.125,193.167c-5.5,66.25 23.125,137.458 103.75,124.416c44.875,-7.25 68.875,-46.625 80.75,-88.208c0.336,-1.222 1.465,-2.077 2.75,-2.083l167.792,-0c1.555,-0 2.264,0.778 2.125,2.333c-30.292,307.292 -496,354.167 -531.5,22.375c-22.709,-211.958 118,-445.375 359.416,-411.292c101.042,14.292 173.5,78.584 191.834,181.625c3.25,18.292 2.833,40.459 3.583,60.5c0.056,1.167 -0.5,1.75 -1.667,1.75l-170.625,0c-1.305,0 -2,-0.638 -2.083,-1.916c-2.375,-33.292 -1.667,-68.5 -37.583,-82.042c-15.584,-5.889 -33.722,-6.097 -54.417,-0.625Z" style="fill:#003a56;fill-rule:nonzero;"/><path d="M5809.61,1353.31c-4.5,84.375 16.5,142.25 102.75,167.75c1.556,0.472 1.847,1.347 0.875,2.625c-56.861,76.444 -132.625,117.958 -227.292,124.541c-152.916,10.667 -271.666,-73.416 -291.458,-229.25c-16.625,-130.625 24.208,-265.375 129.375,-348.333c116.958,-92.333 321.208,-87 412.833,40.083c0.834,1.167 0.598,2.056 -0.708,2.667c-66.167,30.792 -83.792,78 -91,146.917c-0.194,1.861 0.653,2.791 2.542,2.791l98.166,0c0.068,0.001 0.136,0.004 0.204,0.012c1.023,0.111 1.775,1.025 1.666,2.025c-0.008,0.072 -0.02,0.143 -0.036,0.213l-18.792,84.042c-0.361,1.5 -1.305,2.25 -2.833,2.25l-114.542,0c-1.111,0 -1.694,0.556 -1.75,1.667Zm-214.833,-93.042c-24.25,57.917 -50.5,204.75 41.333,225.833c89.083,20.459 143.708,-57.791 161.375,-133.416c13.208,-56.5 21.958,-155.875 -47.375,-178.625c-71.375,-23.417 -128.833,22.958 -155.333,86.208Z" style="fill:#003a56;fill-rule:nonzero;"/><path d="M2878.61,1631.81l-174.958,0.125c-0.005,-0 -0.01,-0 -0.016,-0c-0.502,-0 -0.916,-0.414 -0.916,-0.917c-0,-0.056 0.005,-0.111 0.015,-0.167l127.625,-606.041c0.278,-1.361 1.111,-2.042 2.5,-2.042l173.125,-1.125c4.139,-0.028 5.792,1.986 4.958,6.042l-124.291,601.75c-0.367,1.674 -1.529,3.084 -3.125,3.791c-0.5,0.195 -1.209,0 -2.125,-0.583c-0.834,-0.555 -1.764,-0.833 -2.792,-0.833Z" style="fill:#003a56;fill-rule:nonzero;"/><path d="M3448.86,1360.52c16.833,21.25 25.014,45.722 24.542,73.417c-0.528,30.694 -2.097,61.375 -4.709,92.041c-2.708,31.792 -6.041,35.542 19.875,51.584c1.191,0.746 1.916,2.071 1.917,3.5l-0.5,47.333c-0.028,2.306 -1.194,3.458 -3.5,3.458l-186.833,0c-1.252,-0.005 -2.359,-0.839 -2.709,-2.041c-16.625,-56.375 -6.416,-111.75 -1,-168.75c3.25,-34.459 -17.041,-40.417 -45.958,-41.959c-28.778,-1.5 -51.097,-2.138 -66.958,-1.916c-1.639,0.028 -2.611,0.833 -2.917,2.416l-43.75,209.875c-0.333,1.612 -1.333,2.417 -3,2.417l-174.208,-0.083c-1.25,-0 -1.75,-0.611 -1.5,-1.834l125.666,-604.291c0.537,-2.61 2.856,-4.49 5.5,-4.459c75.639,0.389 150.084,0.903 223.334,1.542c130.166,1.125 244.833,52.542 222.833,206.917c-8,56.055 -36.528,98.68 -85.583,127.875c-1.278,0.778 -1.459,1.764 -0.542,2.958Zm-89.958,-167.5c-6.584,-28.333 -103.084,-20.75 -126.042,-20.208c-1.194,0.028 -1.917,0.625 -2.167,1.791l-17.583,86.375c-0.333,1.556 0.292,2.32 1.875,2.292c45.5,-0.167 163.875,16.125 143.917,-70.25Z" style="fill:#003a56;fill-rule:nonzero;"/><path d="M4439.99,1639.44c-159.333,34.833 -324.208,-32.167 -313.208,-221.167c1.389,-23.889 6.278,-57.208 14.666,-99.958c19.334,-98.278 39.264,-196.445 59.792,-294.5c0.167,-0.778 0.653,-1.181 1.458,-1.209l177.292,-1.291c0.063,-0.002 0.126,0 0.188,0.006c0.934,0.083 1.631,0.939 1.546,1.895c-0.005,0.061 -0.014,0.122 -0.026,0.182c-22.583,109.972 -44.944,220.181 -67.083,330.625c-5.125,25.458 -12.417,68.583 -8.958,89.458c4.541,27.292 24.583,39.792 51.291,43.084c75.375,9.291 91.417,-63.375 103.292,-119.709c24,-114.055 47.597,-228.208 70.792,-342.458c0.222,-1.139 0.903,-1.708 2.041,-1.708l178.25,-1.417c2.112,-0.028 2.959,1 2.542,3.083c-24.667,123.334 -50.167,246.681 -76.5,370.042c-6.055,28.389 -15.653,61.764 -28.792,100.125c-26.125,76.167 -91,127.958 -168.583,144.917Z" style="fill:#003a56;fill-rule:nonzero;"/><path d="M4658.74,1630.02l127.542,-606.375c0.154,-0.678 0.762,-1.165 1.458,-1.167l178.292,-0.791c0.818,0.007 1.487,0.682 1.487,1.5c-0,0.098 -0.01,0.195 -0.029,0.291l-125.25,607.292c-0.138,0.695 -0.75,1.202 -1.458,1.208l-180.584,-0.166c-0.818,-0.007 -1.487,-0.682 -1.487,-1.5c0,-0.098 0.01,-0.196 0.029,-0.292Z" style="fill:#003a56;fill-rule:nonzero;"/><path d="M4946.32,1180.15l32.125,-157.958c0.12,-0.589 0.649,-1.012 1.25,-1l482.834,0.958c0.008,-0 0.017,-0 0.025,-0c0.686,-0 1.25,0.564 1.25,1.25c0,0.084 -0.008,0.168 -0.025,0.25l-31.917,157.083c-0.12,0.59 -0.649,1.013 -1.25,1l-146.917,-0.166c-0.585,0.008 -1.091,0.426 -1.208,1l-93.125,448.291c-0.117,0.574 -0.623,0.993 -1.208,1l-179.667,0c-0.008,0.001 -0.017,0.001 -0.025,0.001c-0.686,-0 -1.25,-0.565 -1.25,-1.25c-0,-0.084 0.008,-0.168 0.025,-0.251l91.458,-447.166c0.017,-0.083 0.026,-0.166 0.026,-0.25c-0,-0.686 -0.565,-1.25 -1.25,-1.25c-0.009,-0 -0.017,-0 -0.026,-0l-149.875,-0.042c-0.008,0 -0.016,0 -0.025,0c-0.686,0 -1.25,-0.564 -1.25,-1.25c0,-0.084 0.009,-0.167 0.025,-0.25Z" style="fill:#003a56;fill-rule:nonzero;"/><path d="M5941.15,1404.81c10,22.375 40,18.583 53.208,1.708c7.875,-10.083 13.75,-36.375 2.833,-47.667c-9.958,-10.291 -29.208,-9.791 -48.166,-10.458c-1.472,-0.055 -2.056,-0.805 -1.75,-2.25l17.5,-79.833c0.305,-1.389 1.166,-2.07 2.583,-2.042c27.667,0.667 66.542,0.333 64.833,-39.542c-0.833,-19.125 -24.125,-25.083 -38.458,-18.125c-13.375,6.542 -18.208,22.917 -18.958,36.959c-0.089,2.017 -1.792,3.628 -3.834,3.625l-103.958,-0.542c-1.333,0 -1.958,-0.68 -1.875,-2.042c6.292,-97.5 86.708,-143.208 176.625,-129.458c60.708,9.25 109.667,55.25 103.75,120c-3.278,35.611 -22.069,61.875 -56.375,78.792c-0.688,0.346 -1.125,1.053 -1.125,1.824c0,0.574 0.242,1.122 0.667,1.509c17.444,15.972 27.722,32.972 30.833,51c22.75,131.917 -146.833,172.917 -235.833,122.542c-42.917,-24.278 -61.584,-65.389 -56,-123.334c0.139,-1.333 0.875,-2 2.208,-2l108.417,-0.416c1.778,-0 2.541,0.889 2.291,2.666c-1.583,10.334 -4.583,25.584 0.584,37.084Z" style="fill:#008bb3;fill-rule:nonzero;"/><path d="M6539.32,1507.86c-40.5,-8.791 -72.791,-45.375 -84.75,-84.25c-24.125,-78.375 5.875,-219.875 70.584,-275.083c34.25,-29.194 75.444,-40.028 123.583,-32.5c67.75,10.556 104.903,51.278 111.458,122.167c6.542,70.833 -11.083,162.541 -55.916,219.208c-38.834,49.083 -93.82,65.903 -164.959,50.458Zm24.125,-116.875c0,15.417 9.709,31.917 26.792,28.209c38.625,-8.375 54.25,-142.292 55.125,-171.709c0.417,-14.583 0.375,-35.958 -17.25,-39.5c-50.792,-10.25 -64.75,154.125 -64.667,183Z" style="fill:#008bb3;fill-rule:nonzero;"/><path d="M6285.53,1250.4c82.291,-21.125 154.625,24.458 154.375,113.792c-0.25,109.166 -94.334,168.583 -195.417,144.791c-130.5,-30.75 -111.833,-199.208 -69.917,-287.333c27.5,-57.792 66.917,-95.542 130.292,-104.5c80.958,-11.5 160.417,26.958 150.292,121.125c-0.139,1.333 -0.875,2 -2.209,2l-101.416,-0.125c-1.806,0 -2.722,-0.917 -2.75,-2.75c-0.334,-23.167 -9.167,-40.583 -36,-30.125c-15.25,5.917 -25.292,26.25 -29.084,41.292c-0.416,1.639 0.195,2.25 1.834,1.833Zm-29.042,147.875c3.5,27.458 38.458,29.25 53.958,14.208c20.75,-20.125 31.375,-83.291 -15.333,-81.666c-31.958,1.125 -42.042,40.708 -38.625,67.458Z" style="fill:#008bb3;fill-rule:nonzero;"/><path d="M1012.7,2186.31c-0.308,-0.055 -0.595,-0.204 -0.822,-0.425c-0.604,-0.592 -0.627,-1.563 -0.052,-2.15c0.223,-0.228 0.515,-0.377 0.833,-0.425c341.375,-56.542 632.666,-217.125 840.458,-492.959c108.792,-144.458 185.542,-318.583 227.875,-494.375c0.056,-0.256 0.193,-0.486 0.391,-0.653c0.507,-0.428 1.287,-0.349 1.73,0.175c0.165,0.195 0.268,0.435 0.296,0.687c32.416,434.916 -279.792,840.166 -689.917,963.125c-122.944,36.861 -249.875,45.861 -380.792,27Z" style="fill:#fcfcfc;fill-rule:nonzero;"/><path d="M1641.24,1483.36c2.111,-2.805 4.875,-4.597 8.292,-5.375l44.541,-10.125c1.973,-0.444 2.959,0.362 2.959,2.417l-1.5,244.667c-0.028,1.694 -0.722,3.041 -2.084,4.041c-90.333,65.362 -189.347,112.695 -297.041,142c-0.073,0.02 -0.149,0.03 -0.224,0.03c-0.48,-0 -0.875,-0.395 -0.875,-0.875c-0,-0.141 0.034,-0.28 0.099,-0.405c73.666,-130.861 155.611,-256.319 245.833,-376.375Z" style="fill:#021128;fill-rule:nonzero;"/><path d="M445.737,1848.56c-4.75,-1.056 -4.722,-1.917 0.083,-2.584c84.334,-11.416 155.625,-43.708 224.042,-93.75c93.111,-68.083 177.778,-145.625 254,-232.625c12.195,-13.916 30.431,-28.25 54.708,-43c1.084,-0.666 2.237,-0.861 3.459,-0.583c79.472,17.667 159.875,28.792 241.208,33.375c0.014,-0 0.028,-0.001 0.042,-0.001c0.549,0 1.001,0.452 1.001,1.001c-0,0.533 -0.427,0.978 -0.96,1c-58.194,8.833 -110.097,31.333 -155.708,67.5c-12.972,10.278 -39.389,34.222 -79.25,71.833c-42.861,40.5 -123.5,122.25 -241.917,245.25c-1,1.056 -2.208,1.5 -3.625,1.334c-99.944,-10.639 -198.972,-26.889 -297.083,-48.75Z" style="fill:#021128;fill-rule:nonzero;"/><path d="M1427.82,1534.86l-72.833,-21.541c-2.5,-0.75 -2.444,-1.153 0.167,-1.209c65.305,-1.5 130.291,-6.93 194.958,-16.291c0.047,-0.006 0.095,-0.009 0.142,-0.009c0.617,-0 1.125,0.508 1.125,1.125c0,0.243 -0.079,0.481 -0.225,0.675c-95.111,122.473 -181.417,250.862 -258.917,385.167c-0.944,1.611 -2.333,2.556 -4.167,2.833l-91.375,13.125c-3.111,0.445 -3.902,-0.694 -2.375,-3.416c69.862,-124.667 148,-243.889 234.417,-357.667c1.056,-1.389 0.75,-2.319 -0.917,-2.792Z" style="fill:#021128;fill-rule:nonzero;"/><path d="M600.154,2013.23c-2.472,-0.972 -2.417,-1.763 0.166,-2.375c76.375,-17.625 122.792,-55 178.75,-112.791c72.278,-74.695 145.32,-148.653 219.125,-221.875c49.125,-48.75 96.917,-97.667 156.209,-121.292c78.083,-31.055 158.111,-33.569 240.083,-7.542c0.743,0.236 1.251,0.93 1.251,1.709c-0,0.373 -0.117,0.738 -0.334,1.041c-100.056,134.806 -188.57,276.973 -265.542,426.5c-2.889,5.639 -6.833,10.195 -11.833,13.667c-159.167,110.875 -347.542,88.917 -517.875,22.958Z" style="fill:#fcfcfc;fill-rule:nonzero;"/></svg>