<?xml version="1.0" encoding="UTF-8" standalone="no"?><!DOCTYPE svg PUBLIC "-//W3C//DTD SVG 1.1//EN" "http://www.w3.org/Graphics/SVG/1.1/DTD/svg11.dtd"><svg width="100%" height="100%" viewBox="0 0 291 244" version="1.1" xmlns="http://www.w3.org/2000/svg" xmlns:xlink="http://www.w3.org/1999/xlink" xml:space="preserve" xmlns:serif="http://www.serif.com/" style="fill-rule:evenodd;clip-rule:evenodd;stroke-linejoin:round;stroke-miterlimit:2;"><g><g id="a"><g><path d="M51.73,69.791c0.407,0.113 0.811,0.243 1.222,0.337c2.181,0.5 4.118,1.487 5.72,3.041c2.403,2.331 4.751,4.718 7.12,7.084c0.087,0.087 0.146,0.2 0.29,0.403c-0.378,0.025 -0.657,0.06 -0.936,0.06c-4.342,0.004 -8.686,-0.012 -13.028,0.018c-0.66,0.005 -1.107,-0.21 -1.548,-0.671c-1.21,-1.263 -2.461,-2.487 -3.711,-3.742c-0.869,0.885 -1.677,1.707 -2.75,2.799c0.299,0.174 0.674,0.303 0.927,0.554c3.948,3.929 7.871,7.881 11.822,11.807c1.111,1.106 1.567,2.379 1.12,3.884c-0.8,2.69 -4.074,3.44 -6.159,1.391c-3.05,-2.997 -6.06,-6.035 -9.074,-9.069c-0.487,-0.49 -0.908,-1.044 -1.401,-1.617c-4.869,4.412 -9.73,4.657 -14.758,0.539c-0.749,0.924 -1.472,1.815 -2.367,2.918c1.447,0.876 2.824,1.694 4.18,2.543c0.268,0.168 0.653,0.456 0.656,0.694c0.047,2.743 0.03,5.487 0.03,8.311c-2.711,-0.039 -5.215,-0.657 -7.317,-2.115c-2.122,-1.473 -4.28,-2.244 -6.831,-1.907c-0.089,0.012 -0.186,-0.041 -0.336,-0.077l-0,-23.616c0.808,0 1.591,0.018 2.374,-0.003c1.699,-0.047 3.211,-0.696 4.706,-1.44c1.507,-0.75 3.053,-1.421 4.582,-2.126l25.467,0Z" style="fill:#fff;fill-rule:nonzero;"/><rect x="0" y="69.791" width="10.943" height="32.829" style="fill:#fff;"/><path d="M248.852,186.291c-0.418,-1.573 -0.803,-3.02 -1.219,-4.588c-3.603,0.967 -7.098,1.919 -10.601,2.842c-5.189,1.366 -10.373,2.754 -15.581,4.047c-2.774,0.689 -5.247,-0.806 -5.833,-3.345c-0.611,-2.652 0.878,-5.07 3.669,-5.824c7.771,-2.1 15.617,-3.952 23.304,-6.32c5.969,-1.838 11.99,-1.491 18.035,-1.43c1.058,0.011 2.189,0.547 3.15,1.083c2.533,1.413 4.98,2.979 7.486,4.44c0.601,0.35 0.813,0.742 0.811,1.44c-0.026,7.89 -0.028,15.781 0.002,23.671c0.003,0.784 -0.257,1.131 -0.976,1.398c-2.393,0.89 -4.73,1.937 -7.143,2.76c-1.286,0.438 -2.685,0.753 -4.036,0.761c-10.665,0.06 -21.33,0.018 -31.995,0.048c-1.839,0.005 -3.477,-0.456 -5.048,-1.398c-14.113,-8.467 -28.24,-16.911 -42.361,-25.364c-2.211,-1.323 -3.199,-3.178 -2.797,-5.23c0.638,-3.257 4.021,-4.885 7.037,-3.296c4.597,2.422 9.151,4.923 13.722,7.392c3.81,2.058 7.632,4.094 11.413,6.203c0.535,0.298 1.064,0.888 1.265,1.46c1.638,4.663 6.159,7.422 11.011,6.261c6.942,-1.662 13.82,-3.589 20.724,-5.408c1.921,-0.506 3.837,-1.031 5.961,-1.603" style="fill:#fff;fill-rule:nonzero;"/><path d="M89.181,87.963l-1.371,-0c-9.416,-0 -18.832,-0.008 -28.248,0.014c-0.75,0.002 -1.304,-0.182 -1.829,-0.739c-0.872,-0.928 -1.832,-1.774 -2.754,-2.654c0.053,-0.068 0.106,-0.136 0.16,-0.204l46.66,0l-0,39.9l-68.966,0l0,-31.161c2.913,0.133 5.608,-0.512 8.013,-2.046c1.037,1.059 2.028,2.071 3.087,3.151c-1.826,2.435 -4.451,3.06 -7.467,2.819l-0,14.569c2.548,-0.125 4.953,0.229 6.867,2.14c1.921,1.916 2.293,4.315 2.133,6.918l43.703,-0c-0.236,-2.556 0.174,-4.947 2.058,-6.865c1.9,-1.936 4.301,-2.336 6.94,-2.182l0,-14.582c-2.563,0.209 -4.961,-0.166 -6.874,-2.076c-1.919,-1.914 -2.354,-4.295 -2.112,-7.002" style="fill:#fff;fill-rule:nonzero;"/><path d="M49.004,117.04c-1.125,-4.795 -4.082,-7.804 -8.994,-8.945c-0,-2.348 -0.01,-4.698 0.018,-7.047c0.002,-0.193 0.226,-0.52 0.396,-0.556c2.489,-0.531 4.518,-1.826 6.319,-3.864c0.726,0.79 1.371,1.547 2.071,2.249c3.212,3.221 6.561,3.557 10.582,0.922c-1.288,2.618 -1.564,5.152 -0.62,7.719c0.957,2.601 2.775,4.398 5.366,5.389c3.962,1.514 8.506,-0.007 10.814,-3.604c2.308,-3.596 1.781,-8.299 -1.223,-11.338c-2.517,-2.547 -7.633,-4.274 -12.559,-0.378c0.207,-0.951 0.532,-1.896 0.586,-2.855c0.055,-0.975 -0.157,-1.964 -0.262,-3.047c0.229,-0.012 0.541,-0.042 0.852,-0.042c7.428,-0.003 14.856,0.011 22.284,-0.021c0.767,-0.004 1.049,0.209 1.259,0.961c1.137,4.069 3.813,6.658 7.867,7.783c0.65,0.18 0.843,0.42 0.834,1.059c-0.031,2.215 -0.012,4.431 -0.012,6.682c-2.04,0.466 -3.841,1.251 -5.361,2.601c-1.737,1.544 -2.893,3.443 -3.422,5.7c-0.122,0.521 -0.307,0.709 -0.844,0.709c-11.871,-0.014 -23.743,-0.013 -35.614,-0.017c-0.097,0 -0.193,-0.033 -0.337,-0.06" style="fill:#fff;fill-rule:nonzero;"/><rect x="276.888" y="169.336" width="14.107" height="37.889" style="fill:#fff;"/><path d="M67.26,109.795c-3.003,-0.014 -5.403,-2.443 -5.396,-5.463c0.008,-2.993 2.452,-5.441 5.438,-5.446c2.969,-0.005 5.448,2.46 5.471,5.438c0.023,3.015 -2.465,5.484 -5.513,5.471" style="fill:#fff;fill-rule:nonzero;"/><path d="M115.458,129.415l-79.799,0c-0.526,0 -0.959,-0.142 -1.304,-0.373l-1.969,-0c-2.315,-0 -4.492,1.123 -5.831,3.02c-1.339,1.891 -1.674,4.318 -0.906,6.501c7.044,19.942 25.995,33.334 47.151,33.334c21.156,-0 40.107,-13.392 47.152,-33.334c0.767,-2.183 0.432,-4.611 -0.907,-6.501c-0.892,-1.263 -2.159,-2.173 -3.587,-2.647" style="fill:#fff;fill-rule:nonzero;"/><path d="M196.988,129.042l18.663,-55.982l18.663,55.982l-37.326,-0Zm64.908,3.02c-1.339,-1.897 -3.516,-3.02 -5.831,-3.02l-6.699,-0l-23.808,-71.426l18.663,0c3.948,0 7.142,-3.194 7.142,-7.142c0,-3.948 -3.194,-7.143 -7.142,-7.143l-79.884,0c-2.158,-6.051 -6.918,-10.811 -12.969,-12.969l-0,-23.219c-0,-3.948 -3.195,-7.143 -7.143,-7.143c-3.948,-0 -7.142,3.195 -7.142,7.143l-0,23.219c-6.051,2.158 -10.812,6.918 -12.97,12.969l-79.883,0c-3.948,0 -7.143,3.195 -7.143,7.143c0,3.948 3.195,7.142 7.143,7.142l18.663,0l-3.458,10.373l26.73,0l-3.458,-10.373l41.406,0c2.158,6.052 6.919,10.812 12.97,12.97l-0,133.678l-39.675,26.449c-2.615,1.744 -3.787,5.002 -2.873,8.015c0.914,3.013 3.69,5.07 6.835,5.07l85.711,0c3.145,0 5.922,-2.057 6.835,-5.07c0.913,-3.013 -0.258,-6.271 -2.874,-8.015l-39.674,-26.449l-0,-133.678c6.051,-2.158 10.811,-6.918 12.969,-12.97l41.407,0l-23.808,71.426l-6.699,-0c-2.316,-0 -4.492,1.123 -5.831,3.02c-1.339,1.891 -1.675,4.318 -0.907,6.501c7.044,19.942 25.996,33.334 47.152,33.334c21.155,-0 40.107,-13.392 47.151,-33.334c0.767,-2.183 0.433,-4.611 -0.906,-6.501" style="fill:#fff;fill-rule:nonzero;"/></g></g></g></svg>